<svg width="144" height="44" viewBox="0 0 144 44" fill="none" xmlns="http://www.w3.org/2000/svg">
<path d="M71.7669 30.5561V30.0377H71.7813C73.9269 30.0377 74.5173 29.4185 74.5173 27.1433V19.3385C74.5173 16.2137 73.5669 14.8169 71.4501 14.8169C70.1109 14.8169 68.6709 15.5657 67.1877 17.0489L67.1301 17.1065V27.1289C67.1301 29.2889 67.7925 29.9801 69.9237 30.0233V30.5417H60.6501V30.0233C62.8101 29.9801 63.4437 29.3177 63.4437 27.1289V17.7113C63.4437 15.5657 63.0117 14.7737 61.8309 14.7737C61.4421 14.7737 60.8373 14.9177 60.3477 15.0905V14.5433L65.7333 12.9017C65.9493 12.8441 66.1365 12.8153 66.3093 12.8153C66.8421 12.8153 67.1157 13.1465 67.1157 13.7945V15.9401L67.4469 15.5513C69.4197 13.2185 71.0757 12.2969 73.3509 12.2969C76.5909 12.2969 78.1749 14.3705 78.1749 18.6185V27.1577C78.1749 29.3465 78.8661 30.0521 81.0117 30.0521V30.5705H71.7669V30.5561Z" fill="#4B5563"/>
<path d="M88.602 31.1184C86.2836 31.1184 84.4692 30.3264 83.0724 28.6704C81.69 27.0576 80.9844 24.9264 80.9844 22.3632C80.9844 19.584 81.8052 17.28 83.49 15.2928C85.1748 13.2624 87.2772 12.2832 89.9412 12.2832C91.626 12.2832 92.9364 12.7584 93.8148 13.68L94.146 14.0256V8.98557C94.146 6.23517 93.6996 5.35677 92.2884 5.35677C91.9428 5.35677 91.338 5.48637 90.906 5.63037L90.9204 5.06877L96.8964 3.19677C96.9684 3.18237 97.0404 3.16797 97.1124 3.16797C97.5012 3.16797 97.818 3.48477 97.818 3.87357V25.3152C97.818 28.1376 98.2788 29.5344 99.33 29.8224C99.5748 29.8944 100.18 29.952 100.986 29.9664V30.4992L95.1684 30.4416H94.146V28.6128L93.8292 28.8864C92.1156 30.3984 90.402 31.1184 88.602 31.1184ZM89.97 13.3776C87.09 13.3776 85.146 16.4304 85.146 20.9664C85.146 25.7616 87.3924 29.1168 90.5892 29.1168C91.7268 29.1168 92.9076 28.5552 94.1028 27.4464L94.1604 27.3888V19.0512C94.1748 15.4512 92.6484 13.3776 89.97 13.3776Z" fill="#4B5563"/>
<path d="M108.865 31.1177C106.474 31.1177 104.53 30.2825 102.903 28.5545C101.362 26.8265 100.57 24.6233 100.57 22.0169C100.57 19.1657 101.348 16.8185 102.86 15.0185C104.401 13.2041 106.46 12.2969 108.98 12.2969C113.343 12.2969 116.18 15.0473 116.266 19.3241H103.494V19.5113C103.494 24.5657 106.014 27.7049 110.074 27.7049C112.652 27.7049 114.567 26.4521 115.777 23.9609L116.209 24.2777C115.82 26.2073 114.97 27.8345 113.689 29.1161C112.335 30.4697 110.766 31.1177 108.865 31.1177ZM108.03 13.4489C105.639 13.4489 103.71 15.4505 103.537 18.1145L103.522 18.3161H112.148L112.134 18.1145C111.975 15.1481 110.478 13.4489 108.03 13.4489Z" fill="#4B5563"/>
<path d="M118.77 30.5555V9.14274C118.77 6.52194 118.295 5.64354 116.913 5.64354C116.524 5.64354 115.905 5.74434 115.473 5.88834V5.39874L121.333 3.19554C121.405 3.16674 121.492 3.15234 121.578 3.15234H121.737C122.125 3.15234 122.442 3.46914 122.442 3.85794V27.1571C122.442 29.2307 123.177 30.0083 125.236 30.0515V30.5699H118.77V30.5555Z" fill="#4B5563"/>
<path d="M138.123 31.1177C136.654 31.1177 135.934 30.2681 135.891 28.5113L135.877 28.1081L135.574 28.3673C133.486 30.1817 131.643 31.1177 130.102 31.1177C127.309 31.1177 125.566 29.4473 125.566 26.7833C125.566 25.3433 126.301 24.0617 127.784 22.8809C129.31 21.6857 131.989 20.4329 135.747 19.1513L135.877 19.1081V18.9785C135.877 15.4217 135.344 13.3769 132.594 13.3769C130.261 13.3769 129.771 14.6441 129.771 15.7097C129.771 17.6249 129.166 18.5609 127.914 18.5609C126.906 18.5609 126.229 17.8553 126.229 16.8041C126.229 15.5945 126.834 14.5721 128.072 13.6793C129.354 12.7577 131.067 12.2969 133.184 12.2969C137.461 12.2969 139.549 14.0537 139.549 17.6537V25.7753C139.549 28.0793 139.894 28.6265 140.499 28.8137C140.557 28.8281 140.614 28.8425 140.686 28.8425C141.032 28.8425 141.45 28.5689 141.939 28.0505L142.342 28.5401C141.003 30.2537 139.578 31.1177 138.123 31.1177ZM135.632 20.1737C130.779 22.1465 129.296 23.5001 129.296 25.9337C129.296 27.5609 130.477 28.7849 132.032 28.7849C133.069 28.7849 134.307 28.2521 135.819 27.1721L135.891 27.1145V20.0729L135.632 20.1737Z" fill="#4B5563"/>
<path d="M56.0138 31.1177C54.545 31.1177 53.825 30.2681 53.7818 28.5113L53.7674 28.1081L53.465 28.3673C51.377 30.1817 49.5338 31.1177 47.993 31.1177C45.1994 31.1177 43.457 29.4473 43.457 26.7833C43.457 25.3433 44.1914 24.0617 45.6746 22.8809C47.201 21.6857 49.8794 20.4329 53.6378 19.1513L53.7674 19.1081V18.9785C53.7674 15.4217 53.2346 13.3769 50.4842 13.3769C48.1514 13.3769 47.6618 14.6441 47.6618 15.7097C47.6618 17.6249 47.057 18.5609 45.8042 18.5609C44.7962 18.5609 44.1194 17.8553 44.1194 16.8041C44.1194 15.5945 44.7242 14.5721 45.9626 13.6793C47.2298 12.7577 48.9578 12.2969 51.0746 12.2969C55.3658 12.2969 57.4394 14.0537 57.4394 17.6537V25.7753C57.4394 28.0793 57.785 28.6265 58.3898 28.8137C58.4474 28.8281 58.505 28.8425 58.577 28.8425C58.9226 28.8425 59.3402 28.5833 59.8298 28.0505L60.233 28.5401C58.8938 30.2537 57.4826 31.1177 56.0138 31.1177ZM53.5226 20.1737C48.6698 22.1465 47.1866 23.4857 47.1866 25.9337C47.1866 27.5609 48.3674 28.7849 49.9226 28.7849C50.9594 28.7849 52.1978 28.2521 53.7098 27.1721L53.7818 27.1145V20.0729L53.5226 20.1737Z" fill="#4B5563"/>
<path d="M31.4342 11.0282L31.4198 11.0138L31.2326 10.8986L31.1894 10.8698L21.0806 5.03783L20.9078 4.93703C20.0438 4.44743 19.0502 4.17383 17.9846 4.17383C16.919 4.17383 15.9254 4.44743 15.0758 4.93703L14.9318 5.02343L14.8886 5.05223L4.72222 10.913L4.52062 11.0282H4.50622C2.79262 12.0794 1.64062 13.9802 1.64062 16.1402V28.0922C1.64062 30.2666 2.79262 32.153 4.52062 33.2042L4.65022 33.2762L15.0038 39.2522C15.8822 39.7562 16.8902 40.0442 17.9846 40.0442C19.0646 40.0442 20.087 39.7562 20.9654 39.2522L31.3046 33.2762L31.3334 33.2618C33.119 32.225 34.3286 30.2954 34.3286 28.0778V16.1258C34.3142 13.9658 33.1622 12.065 31.4342 11.0282ZM31.8806 22.289H31.823C24.2918 22.3178 18.1574 28.481 18.1574 36.0122C18.1574 36.113 18.071 36.185 17.9846 36.185C17.8838 36.185 17.8118 36.0986 17.8118 36.0122V35.9546C17.783 28.4234 11.6198 22.289 4.08862 22.289C3.98782 22.289 3.91583 22.2026 3.91583 22.1162C3.91583 22.0154 4.00222 21.9434 4.08862 21.9434H4.14622C11.6774 21.9146 17.8118 15.7514 17.8118 8.22023C17.8118 8.11943 17.8982 8.04743 17.9846 8.04743C18.0854 8.04743 18.1574 8.13383 18.1574 8.22023C18.1574 15.7802 24.3062 21.9434 31.8806 21.9434C31.9814 21.9434 32.0534 22.0298 32.0534 22.1162C32.0678 22.217 31.9814 22.289 31.8806 22.289Z" fill="#4B5563"/>
</svg>
