<svg width="144" height="33" viewBox="0 0 144 33" fill="none" xmlns="http://www.w3.org/2000/svg">
<g clip-path="url(#clip0_706_282)">
<path d="M55.6958 21.5928L54.6216 19.2933H49.5893L48.5151 21.5928H46.6464L51.2373 12H53.0472L57.6381 21.5928H55.6958ZM52.1156 13.749L50.2747 17.8299H53.9564L52.1156 13.749ZM66.1783 12C68.4809 12 69.7503 13.0721 69.7503 15.033C69.7503 17.008 68.4809 18.0801 66.1783 18.0801H62.252V21.5928H60.466V12H66.1783ZM65.9477 16.6109C67.288 16.6109 67.9361 16.1061 67.9361 15.0404C67.9361 13.9888 67.288 13.484 65.9477 13.484H62.2802V16.6109H65.9477ZM78.5573 12C80.8599 12 82.1293 13.0721 82.1293 15.033C82.1293 17.008 80.8599 18.0801 78.5573 18.0801H74.631V21.5928H72.845V12H78.5573ZM78.3267 16.6109C79.667 16.6109 80.3151 16.1061 80.3151 15.0404C80.3151 13.9888 79.667 13.484 78.3267 13.484H74.6592V16.6109H78.3267ZM97.635 21.5928L96.5608 19.2933H91.5285L90.4543 21.5928H88.5856L93.1765 12H94.9864L99.5773 21.5928H97.635ZM94.0547 13.749L92.2139 17.8299H95.8956L94.0547 13.749ZM110.307 12H112.01V21.5928H110.351L104.215 13.9186V21.5928H102.512V12H104.743L110.307 18.9548V12ZM123.486 12H125.189V21.5928H123.53L117.394 13.9186V21.5928H115.691V12H117.923L123.486 18.9548V12ZM128.924 21.5928V12H130.685V21.5928H128.924ZM143.277 13.4671H136.197V16.0205H142.322V17.4876H136.197V20.1257H143.277V21.5928H134.42V12H143.277V13.4671Z" fill="#4B5563" stroke="#4B5563" stroke-width="0.5"/>
<mask id="mask0_706_282" style="mask-type:alpha" maskUnits="userSpaceOnUse" x="0" y="1" width="39" height="32">
<path d="M13.5615 1.17969H25.6091L38.2165 13.8805L19.5856 32.6499L0.954102 13.8805L13.5615 1.17969ZM15.3481 2.68627L19.5699 6.82939L23.7913 2.68627H15.3481ZM20.7069 7.99115L25.8392 13.1068H35.3501L25.4622 3.25125L20.7069 7.99115ZM13.6882 3.25125L3.82044 13.1068H13.3715L18.4637 8.02051L13.6882 3.25125ZM14.5692 14.0176L19.539 29.0829L24.5079 14.0176L19.539 8.9951L14.5692 14.0176ZM3.82044 14.6134L17.7783 28.6121L13.1254 14.6134H3.82044ZM26.0344 14.6134L21.4235 28.6121L35.2567 14.6134H26.0344Z" fill="white"/>
</mask>
<g mask="url(#mask0_706_282)">
<path d="M25.6094 1H13.5618L0.954414 13.7009L19.5853 32.4702L38.2168 13.7009L25.6094 1ZM23.8228 2.50658L19.601 6.6497L15.3796 2.50658H23.8228ZM18.464 7.81147L13.3317 12.9271H3.82076L13.7087 3.07156L18.464 7.81147ZM25.4827 3.07156L35.3505 12.9271H25.7994L20.7072 7.84083L25.4827 3.07156ZM24.6017 13.8379L19.6319 28.9032L14.663 13.8379L19.6319 8.81542L24.6017 13.8379ZM35.3505 14.4337L21.3926 28.4324L26.0455 14.4337H35.3505ZM13.1365 14.4337L17.7474 28.4324L3.91422 14.4337H13.1365Z" fill="#4B5563" stroke="#4B5563" stroke-width="0.5"/>
</g>
</g>
<defs>
<clipPath id="clip0_706_282">
<rect width="144" height="32.4238" fill="white" transform="translate(0 0.226562)"/>
</clipPath>
</defs>
</svg>
