<svg width="98" height="32" viewBox="0 0 98 32" fill="none" xmlns="http://www.w3.org/2000/svg">
<path d="M88.345 12.5552C89.5117 12.5552 90.4575 11.6103 90.4575 10.4446C90.4575 9.27894 89.5117 8.33398 88.345 8.33398C87.1782 8.33398 86.2324 9.27894 86.2324 10.4446C86.2324 11.6103 87.1782 12.5552 88.345 12.5552Z" fill="#4B5563"/>
<path d="M58.1721 19.4455C59.2085 19.4455 59.8064 18.6689 59.7665 17.9123C59.7466 17.5141 59.7067 17.2552 59.6668 17.0561C59.0291 14.3083 56.797 12.2773 54.1464 12.2773C50.9975 12.2773 48.4465 15.1247 48.4465 18.6291C48.4465 22.1335 50.9975 24.9809 54.1464 24.9809C56.1194 24.9809 57.5344 24.2641 58.5508 23.1291C59.049 22.5716 58.9494 21.7154 58.3515 21.2973C57.8533 20.9588 57.2354 21.0782 56.7771 21.4565C56.3386 21.8349 55.5016 22.5915 54.1464 22.5915C52.552 22.5915 51.1968 21.2176 50.8978 19.4057H58.1721V19.4455ZM54.1264 14.6866C55.5614 14.6866 56.797 15.8017 57.2554 17.3349H50.9975C51.4559 15.7818 52.6915 14.6866 54.1264 14.6866Z" fill="#4B5563"/>
<path d="M48.5659 13.5308C48.5659 12.9335 48.1274 12.4556 47.5694 12.356C45.8355 12.0972 44.2013 12.7344 43.2646 13.9091V13.7498C43.2646 13.0131 42.6667 12.5552 42.0688 12.5552C41.4111 12.5552 40.873 13.0928 40.873 13.7498V23.5065C40.873 24.1437 41.3514 24.7012 41.9891 24.741C42.6866 24.7808 43.2646 24.2432 43.2646 23.5463V18.5087C43.2646 16.2786 44.9387 14.4468 47.2505 14.7056C47.3302 14.7056 47.4099 14.7056 47.4897 14.7056C48.0875 14.6658 48.5659 14.1481 48.5659 13.5308Z" fill="#4B5563"/>
<path d="M89.541 14.8041C89.541 14.147 89.0029 13.6094 88.3452 13.6094C87.6875 13.6094 87.1494 14.147 87.1494 14.8041C87.1494 14.8439 87.1494 23.1669 87.1494 23.5452C87.1494 24.2023 87.6875 24.7399 88.3452 24.7399C89.0029 24.7399 89.541 24.2023 89.541 23.5452C89.541 23.1868 89.541 14.8638 89.541 14.8041Z" fill="#4B5563"/>
<path d="M71.7637 8.19469C71.7637 7.53761 71.2256 7 70.5679 7C69.9102 7 69.3721 7.53761 69.3721 8.19469V13.5111C68.555 12.6947 67.5386 12.2965 66.3229 12.2965C63.174 12.2965 60.623 15.1438 60.623 18.6482C60.623 22.1527 63.174 25 66.3229 25C67.5386 25 68.5749 24.5819 69.3921 23.7655C69.4917 24.323 69.9899 24.7411 70.5679 24.7411C71.2256 24.7411 71.7637 24.2035 71.7637 23.5465V8.19469ZM66.3428 22.6305C64.5093 22.6305 63.0345 20.8584 63.0345 18.6482C63.0345 16.458 64.5093 14.6659 66.3428 14.6659C68.1764 14.6659 69.6511 16.4381 69.6511 18.6482C69.6511 20.8584 68.1564 22.6305 66.3428 22.6305Z" fill="#4B5563"/>
<path d="M84.2393 8.19469C84.2393 7.53761 83.7012 7 83.0435 7C82.3858 7 81.8477 7.53761 81.8477 8.19469V13.5111C81.0306 12.6947 80.0142 12.2965 78.7985 12.2965C75.6496 12.2965 73.0986 15.1438 73.0986 18.6482C73.0986 22.1527 75.6496 25 78.7985 25C80.0142 25 81.0505 24.5819 81.8676 23.7655C81.9673 24.323 82.4655 24.7411 83.0435 24.7411C83.7012 24.7411 84.2393 24.2035 84.2393 23.5465V8.19469ZM78.7985 22.6305C76.965 22.6305 75.4902 20.8584 75.4902 18.6482C75.4902 16.458 76.965 14.6659 78.7985 14.6659C80.632 14.6659 82.1068 16.4381 82.1068 18.6482C82.1068 20.8584 80.632 22.6305 78.7985 22.6305Z" fill="#4B5563"/>
<path d="M95.5994 23.5667V14.6862H96.6557C97.2137 14.6862 97.712 14.268 97.7518 13.6906C97.7917 13.0733 97.2935 12.5556 96.6956 12.5556H95.5994V10.8831C95.5994 10.2459 95.1211 9.68838 94.4834 9.64856C93.7859 9.60874 93.2079 10.1463 93.2079 10.8433V12.5756H92.2114C91.6534 12.5756 91.1551 12.9937 91.1153 13.5711C91.0754 14.1884 91.5737 14.7061 92.1716 14.7061H93.188V23.5866C93.188 24.2437 93.7261 24.7813 94.3837 24.7813C95.0813 24.7415 95.5994 24.2238 95.5994 23.5667Z" fill="#4B5563"/>
<path d="M16.4717 31.971C25.3082 31.971 32.4717 24.8141 32.4717 15.9855C32.4717 7.15695 25.3082 0 16.4717 0C7.63512 0 0.47168 7.15695 0.47168 15.9855C0.47168 24.8141 7.63512 31.971 16.4717 31.971Z" fill="#4B5563"/>
<path d="M27.1447 15.9863C27.1447 14.6892 26.0946 13.6591 24.8153 13.6591C24.1853 13.6591 23.6125 13.9071 23.1924 14.3077C21.5886 13.1631 19.3929 12.4192 16.949 12.3238L18.0182 7.32593L21.4931 8.06988C21.5313 8.94737 22.2569 9.65317 23.1542 9.65317C24.0707 9.65317 24.8153 8.90922 24.8153 7.99358C24.8153 7.07794 24.0707 6.33398 23.1542 6.33398C22.5051 6.33398 21.9323 6.7155 21.665 7.2687L17.7891 6.44844C17.6745 6.42936 17.56 6.44844 17.4836 6.50567C17.3881 6.56289 17.3309 6.65827 17.3118 6.77273L16.128 12.3429C13.6459 12.4192 11.412 13.1631 9.78909 14.3267C9.36904 13.9261 8.79625 13.6782 8.16618 13.6782C6.86785 13.6782 5.83682 14.7273 5.83682 16.0054C5.83682 16.9592 6.40962 17.7604 7.21153 18.1228C7.17334 18.3517 7.15425 18.5806 7.15425 18.8286C7.15425 22.4149 11.3356 25.3335 16.4908 25.3335C21.6459 25.3335 25.8273 22.4339 25.8273 18.8286C25.8273 18.5997 25.8082 18.3517 25.77 18.1228C26.5719 17.7604 27.1447 16.9401 27.1447 15.9863ZM11.1447 17.6459C11.1447 16.7303 11.8893 15.9863 12.8058 15.9863C13.7223 15.9863 14.4669 16.7303 14.4669 17.6459C14.4669 18.5616 13.7223 19.3055 12.8058 19.3055C11.8893 19.3246 11.1447 18.5616 11.1447 17.6459ZM20.443 22.0524C19.2974 23.197 17.1208 23.2733 16.4908 23.2733C15.8416 23.2733 13.665 23.1779 12.5385 22.0524C12.3667 21.8807 12.3667 21.6137 12.5385 21.442C12.7103 21.2703 12.9776 21.2703 13.1495 21.442C13.875 22.1669 15.4025 22.4149 16.4908 22.4149C17.5791 22.4149 19.1256 22.1669 19.832 21.442C20.0039 21.2703 20.2712 21.2703 20.443 21.442C20.5958 21.6137 20.5958 21.8807 20.443 22.0524ZM20.1375 19.3246C19.2211 19.3246 18.4764 18.5806 18.4764 17.665C18.4764 16.7494 19.2211 16.0054 20.1375 16.0054C21.054 16.0054 21.7986 16.7494 21.7986 17.665C21.7986 18.5616 21.054 19.3246 20.1375 19.3246Z" fill="white"/>
</svg>
