<svg width="144" height="36" viewBox="0 0 144 36" fill="none" xmlns="http://www.w3.org/2000/svg">
<path d="M49.1328 17.0544C49.1328 10.5824 53.2907 6.09766 59.2644 6.09766C61.5802 6.09766 63.6855 6.74217 65.3697 8.0312V12.0863C63.58 10.3676 61.5537 9.50821 59.3695 9.50821C55.317 9.50821 52.7118 12.4085 52.7118 17.0544C52.7118 21.6198 55.317 24.6007 59.3695 24.6007C61.5537 24.6007 63.5538 23.7413 65.3697 22.0226V26.0777C63.6855 27.3667 61.5802 28.0113 59.2644 28.0113C53.2907 28.0113 49.1328 23.5265 49.1328 17.0544Z" fill="#4B5563"/>
<path d="M82.0777 21.0281H71.6305C71.9462 23.6599 73.5515 24.949 76.3673 24.949C78.2358 24.949 79.9462 24.4387 81.2883 23.4988V26.6408C79.9197 27.527 78.1566 28.0104 76.2618 28.0104C71.3935 28.0104 68.3672 24.949 68.3672 20.0614C68.3672 15.2543 71.2619 11.9512 75.4989 11.9512C79.4463 11.9512 82.1042 15.0126 82.1042 19.6585V21.0281H82.0777ZM71.7094 18.3964H78.9463C78.7093 16.1137 77.525 14.9321 75.5251 14.9321C73.4726 14.9052 72.104 16.1674 71.7094 18.3964Z" fill="#4B5563"/>
<path d="M98.3414 17.5639V27.6882H95.0254V18.2084C95.0254 16.2748 93.9465 15.1201 92.2361 15.1201C90.8148 15.1201 89.5255 15.9526 88.8939 17.2953V27.6882H85.5781V12.2734H88.6571V14.5024C89.6571 12.8642 91.2359 11.9512 93.1833 11.9512C96.3151 11.9512 98.3414 14.1801 98.3414 17.5639Z" fill="#4B5563"/>
<path d="M101.551 26.6408V23.2034C103.103 24.4387 104.919 25.0295 107.051 25.0295C109.051 25.0295 109.998 24.4924 109.998 23.3645C109.998 22.4783 109.472 21.9412 108.288 21.6726L105.446 21.0281C103.024 20.4642 101.735 18.9603 101.735 16.7045C101.735 13.7773 104.051 11.9512 107.84 11.9512C109.709 11.9512 111.34 12.354 112.524 13.1059V16.5434C111.209 15.4423 109.63 14.8783 107.788 14.8783C105.919 14.8783 104.946 15.4692 104.946 16.5702C104.946 17.3759 105.472 17.8861 106.525 18.101L109.367 18.7723C111.919 19.39 113.261 20.8401 113.261 23.096C113.261 26.1306 110.84 27.9567 106.919 27.9567C104.84 28.0104 103.024 27.527 101.551 26.6408Z" fill="#4B5563"/>
<path d="M125.475 12.2734H128.791V27.6613H125.791V25.3518C124.791 27.0436 123.238 27.9835 121.264 27.9835C118.212 27.9835 116.133 25.7278 116.133 22.3977V12.2734H119.449V21.7264C119.449 23.6331 120.554 24.8147 122.238 24.8147C123.659 24.8147 124.896 23.9822 125.501 22.5857V12.2734H125.475Z" fill="#4B5563"/>
<path d="M132.344 26.6408V23.2034C133.896 24.4387 135.712 25.0295 137.844 25.0295C139.844 25.0295 140.791 24.4924 140.791 23.3645C140.791 22.4783 140.265 21.9412 139.081 21.6726L136.239 21.0281C133.817 20.4642 132.528 18.9603 132.528 16.7045C132.528 13.7773 134.844 11.9512 138.633 11.9512C140.502 11.9512 142.133 12.354 143.317 13.1059V16.5434C142.002 15.4423 140.423 14.8783 138.581 14.8783C136.712 14.8783 135.738 15.4692 135.738 16.5702C135.738 17.3759 136.265 17.8861 137.318 18.101L140.159 18.7723C142.712 19.39 144.054 20.8401 144.054 23.096C144.054 26.1306 141.633 27.9567 137.712 27.9567C135.607 28.0104 133.817 27.527 132.344 26.6408Z" fill="#4B5563"/>
<path d="M39.2895 18.0743L30.5263 2.57906C29.8685 1.4243 28.6579 0.699219 27.3421 0.699219H11.9474C10.6316 0.699219 9.42106 1.4243 8.76315 2.57906L7.65789 4.53947H27.3158L25.1316 8.37972H5.47367L3.28948 12.2468H22.9474L20.7632 16.0871H1.10526L0 18.0743L1.07895 19.9542H20.7368L22.8947 23.7945H3.23683L5.42105 27.6347H25.079L27.2631 31.4749H7.60527L8.76315 33.516C9.42106 34.6705 10.6316 35.3957 11.9474 35.3957H27.3421C28.6579 35.3957 29.8685 34.6705 30.5263 33.516L39.2895 18.0743Z" fill="#4B5563"/>
</svg>
