<svg width="131" height="36" viewBox="0 0 131 36" fill="none" xmlns="http://www.w3.org/2000/svg">
<path d="M28.9531 2.25H4.95312C2.74413 2.25 0.953125 4.04442 0.953125 6.25763V30.3034C0.953125 32.5166 2.74413 34.3111 4.95312 34.3111H28.9531C31.1621 34.3111 32.9531 32.5166 32.9531 30.3034V6.25763C32.9531 4.04442 31.1621 2.25 28.9531 2.25V2.25ZM21.2191 8.1282C21.2191 7.53807 21.6971 7.05916 22.2861 7.05916C22.8751 7.05916 23.3531 7.53807 23.3531 8.1282V22.4064C23.3531 22.9965 22.8751 23.4754 22.2861 23.4754C21.6971 23.4754 21.2191 22.9965 21.2191 22.4064V8.1282ZM15.8861 7.58717C15.8861 6.99704 16.3641 6.51813 16.9531 6.51813C17.5421 6.51813 18.0201 6.99704 18.0201 7.58717V23.0837C18.0201 23.6738 17.5421 24.1527 16.9531 24.1527C16.3641 24.1527 15.8861 23.6738 15.8861 23.0837V7.58717ZM10.5531 8.1282C10.5531 7.53807 11.0311 7.05916 11.6201 7.05916C12.2091 7.05916 12.6861 7.53807 12.6861 8.1282V22.4064C12.6861 22.9965 12.2091 23.4754 11.6201 23.4754C11.0311 23.4754 10.5531 22.9965 10.5531 22.4064V8.1282ZM5.22012 10.2653C5.22012 9.67514 5.69712 9.19623 6.28612 9.19623C6.87512 9.19623 7.35312 9.67514 7.35312 10.2653V19.8776C7.35312 20.4677 6.87512 20.9466 6.28612 20.9466C5.69712 20.9466 5.22012 20.4677 5.22012 19.8776V10.2653ZM28.3141 26.5663C28.1501 26.7086 24.1981 30.0299 16.9531 30.0299C9.70813 30.0299 5.75812 26.7086 5.59212 26.5663C5.14512 26.1826 5.09212 25.5083 5.47612 25.0594C5.85812 24.6126 6.53012 24.5595 6.97712 24.9422C7.03912 24.9943 10.5681 27.8928 16.9521 27.8928C23.4161 27.8928 26.8901 24.9733 26.9241 24.9442C27.3701 24.5595 28.0451 24.6116 28.4271 25.0594C28.8131 25.5083 28.7611 26.1826 28.3141 26.5663ZM28.6861 19.8776C28.6861 20.4677 28.2081 20.9466 27.6191 20.9466C27.0301 20.9466 26.5531 20.4677 26.5531 19.8776V10.2653C26.5531 9.67514 27.0301 9.19623 27.6191 9.19623C28.2081 9.19623 28.6861 9.67514 28.6861 10.2653V19.8776Z" fill="#4B5563"/>
<path d="M45.6495 22.9141C45.6495 23.4491 45.2415 23.8889 44.6605 23.8889C44.0955 23.8889 43.6875 23.4481 43.6875 22.9141V13.6194C43.6875 13.0844 44.0955 12.6445 44.6765 12.6445C45.2415 12.6445 45.6495 13.0854 45.6495 13.6194V22.9141Z" fill="#4B5563"/>
<path d="M58.3333 13.6202V22.1134C58.3333 23.2616 57.7213 23.9068 56.7483 23.9068H56.6703C55.7443 23.9068 55.3043 23.3718 54.9123 22.5853L52.9343 18.7319L51.1763 14.7534L51.2233 18.6067L51.2393 22.8999C51.2393 23.4349 50.8313 23.8747 50.2503 23.8747C49.6853 23.8747 49.2773 23.4339 49.2773 22.8999V14.4067C49.2773 13.3527 49.8893 12.6133 50.9573 12.6133H51.0353C52.0243 12.6133 52.4323 13.1483 52.8253 13.9348L54.7713 17.7571L56.4353 21.4691L56.3883 17.9144L56.3723 13.6212C56.3723 13.0862 56.7803 12.6463 57.3613 12.6463C57.9253 12.6453 58.3333 13.0852 58.3333 13.6202Z" fill="#4B5563"/>
<path d="M66.1956 22.9C66.1956 23.435 65.7876 23.8749 65.2066 23.8749C64.6416 23.8749 64.2336 23.434 64.2336 22.9V14.486H61.8006C61.2986 14.486 60.8906 14.1083 60.8906 13.5582C60.8906 13.0232 61.2986 12.6465 61.8006 12.6465H68.6286C69.1306 12.6465 69.5386 13.0242 69.5386 13.5743C69.5386 14.1093 69.1306 14.486 68.6286 14.486H66.1956V22.9Z" fill="#4B5563"/>
<path d="M72.0991 22.5858V13.8571C72.0991 13.0396 72.5541 12.5837 73.3861 12.6148H79.0371C79.5391 12.6148 79.9471 13.0075 79.9471 13.5425C79.9471 14.0776 79.5391 14.4543 79.0371 14.4543H74.0451V17.1594H78.4561C78.9431 17.1594 79.3351 17.5211 79.3351 18.0401C79.3351 18.5591 78.9431 18.9208 78.4561 18.9208H74.0451V22.0347H79.0371C79.5391 22.0347 79.9471 22.4275 79.9471 22.9625C79.9471 23.4975 79.5391 23.8742 79.0371 23.8742H73.3391C72.5231 23.8752 72.0681 23.4194 72.0991 22.5858Z" fill="#4B5563"/>
<path d="M91.0907 22.6008C91.3577 23.0567 91.1847 23.6388 90.6357 23.9223C90.1017 24.1898 89.5207 23.9854 89.2547 23.5296L87.0727 19.4879H85.0007L85.0167 22.9164C85.0167 23.4514 84.6087 23.8913 84.0277 23.8913C83.4627 23.8913 83.0547 23.4504 83.0547 22.9164V13.8571C83.0547 13.0396 83.5097 12.5837 84.3417 12.6148H88.0617C90.6207 12.6148 91.6877 14.2819 91.6877 15.9802C91.6877 17.6003 90.7457 18.7955 89.1287 19.1101L91.0907 22.6008ZM84.9997 17.7095H88.1077C89.1597 17.7095 89.7087 17.0332 89.7087 16.0734C89.7087 15.1135 89.1277 14.4533 88.0917 14.4533H84.9997V17.7095Z" fill="#4B5563"/>
<path d="M95.7423 23.0416C94.5653 21.9876 94.0312 20.3364 94.0312 18.2605C94.0312 16.1685 94.5493 14.5334 95.7113 13.4954C96.4333 12.8662 97.4063 12.4414 98.8193 12.4414C100.059 12.4414 101.017 12.7249 101.739 13.3381C102.367 13.8411 102.822 14.5494 103.089 15.5403C103.23 16.0593 102.869 16.5783 102.273 16.6885C101.708 16.7827 101.253 16.421 101.08 15.902C100.892 15.399 100.64 15.0374 100.342 14.7849C99.9343 14.4232 99.4323 14.2659 98.7723 14.2659C98.0663 14.2659 97.4533 14.4703 96.9983 14.9261C96.3393 15.5864 96.0563 16.7666 96.0563 18.2605C96.0563 19.7393 96.3233 20.9186 97.0143 21.5788C97.4693 22.0347 98.0663 22.2391 98.7563 22.2391C99.4783 22.2391 100.027 22.0507 100.483 21.6259C100.718 21.4055 100.923 21.1229 101.064 20.7923C101.268 20.3044 101.692 19.9427 102.241 20.0689C102.79 20.1952 103.136 20.7292 102.963 21.2482C102.68 22.1128 102.194 22.8051 101.535 23.277C100.813 23.796 99.9183 24.0635 98.7883 24.0635C97.3443 24.0635 96.4333 23.6387 95.7423 23.0416Z" fill="#4B5563"/>
<path d="M105.297 18.2605C105.297 14.7378 106.741 12.4414 110.148 12.4414C113.523 12.4414 114.983 14.6747 114.983 18.2605C114.983 21.8934 113.507 24.0796 110.148 24.0796C106.726 24.0796 105.297 21.8934 105.297 18.2605ZM112.973 18.2605C112.973 15.5864 112 14.2819 110.132 14.2819C108.295 14.2819 107.322 15.5874 107.322 18.2605C107.322 20.9346 108.264 22.2391 110.132 22.2391C111.984 22.2391 112.973 20.9336 112.973 18.2605Z" fill="#4B5563"/>
<path d="M130.212 22.9C130.212 23.435 129.804 23.8749 129.223 23.8749C128.658 23.8749 128.25 23.434 128.25 22.9V18.685L128.297 14.5802L126.931 18.7481L125.55 22.8529C125.315 23.5763 124.828 23.8598 124.216 23.8598C123.572 23.8598 123.101 23.5613 122.85 22.8379L121.437 18.7491L120.134 14.6443L120.181 18.686V22.901C120.181 23.436 119.773 23.8759 119.192 23.8759C118.627 23.8759 118.219 23.435 118.219 22.901V14.487C118.219 13.3228 118.847 12.6465 119.946 12.6465C120.982 12.6465 121.563 13.1965 121.892 14.2034L123.336 18.4966L124.215 21.4222L125.11 18.4966L126.554 14.2034C126.884 13.1965 127.449 12.6465 128.485 12.6465C129.584 12.6465 130.196 13.3067 130.196 14.487L130.212 22.9Z" fill="#4B5563"/>
</svg>
