<svg width="144" height="36" viewBox="0 0 144 36" fill="none" xmlns="http://www.w3.org/2000/svg">
<path d="M60.1554 6.0293H56.7422V29.959H69.2485V26.3452H60.1554V6.0293Z" fill="#4B5563"/>
<path d="M76.5382 13.2246C72.7973 13.2246 70.2578 16.806 70.2578 21.7546C70.2578 26.6708 72.7973 30.2847 76.5382 30.2847C78.6135 30.2847 80.0061 29.2754 80.7707 28.0383L80.9346 29.9592H83.8836V13.5502H80.9346L80.7707 15.4711C80.0061 14.2339 78.6135 13.2246 76.5382 13.2246ZM77.2482 16.6757C78.8866 16.6757 79.8696 17.7175 80.6069 19.1175V24.3919C79.8696 25.7917 78.8866 26.8337 77.2482 26.8337C75.1183 26.8337 73.5892 24.8476 73.5892 21.7546C73.5892 18.6617 75.1183 16.6757 77.2482 16.6757Z" fill="#4B5563"/>
<path d="M92.035 8.04688H88.7582V13.5491H86.1641V16.87H88.7582V24.1629C88.7582 28.1348 90.7515 30.2836 93.8918 30.2836C95.2571 30.2836 96.2674 29.8278 96.95 29.3069L96.0763 26.2465C95.6667 26.5396 95.0659 26.7675 94.1921 26.7675C92.9087 26.7675 92.035 25.7906 92.035 24.1302V16.87H96.1854V13.5491H92.035V8.04688Z" fill="#4B5563"/>
<path d="M103.238 8.04688H99.9613V13.5491H97.3672V16.87H99.9613V24.1629C99.9613 28.1348 101.955 30.2836 105.095 30.2836C106.46 30.2836 107.471 29.8278 108.153 29.3069L107.279 26.2465C106.87 26.5396 106.269 26.7675 105.395 26.7675C104.112 26.7675 103.238 25.7906 103.238 24.1302V16.87H107.389V13.5491H103.238V8.04688Z" fill="#4B5563"/>
<path d="M113.534 13.5494H110.257V29.9584H113.534V13.5494ZM111.896 5.89844C110.749 5.89844 109.875 6.90772 109.875 8.3077C109.875 9.70767 110.749 10.717 111.896 10.717C113.07 10.717 113.944 9.70767 113.944 8.3077C113.944 6.90772 113.07 5.89844 111.896 5.89844Z" fill="#4B5563"/>
<path d="M123.327 13.2246C119.094 13.2246 116.281 16.806 116.281 21.7546C116.281 26.6708 119.122 30.2847 123.354 30.2847C125.839 30.2847 127.723 28.9499 128.952 26.6708L126.603 24.4895C125.948 25.7917 124.883 26.8662 123.381 26.8662C120.951 26.8662 119.613 24.6197 119.613 21.7546C119.613 18.857 120.896 16.6432 123.354 16.6432C124.883 16.6432 125.893 17.685 126.521 18.9873L128.898 16.8385C127.669 14.5595 125.839 13.2246 123.327 13.2246Z" fill="#4B5563"/>
<path d="M136.866 13.2246C132.906 13.2246 130.121 16.8385 130.121 21.7873C130.121 26.7034 132.851 30.2847 137.111 30.2847C139.651 30.2847 141.453 29.2754 142.819 27.322L140.552 25.1082C139.924 26.1499 138.749 26.9965 137.139 26.9965C134.845 26.9965 133.534 25.5638 133.453 22.9592H143.173V21.5919C143.173 17.0012 141.098 13.2246 136.866 13.2246ZM136.811 16.3502C138.777 16.3502 139.869 17.9129 139.951 20.1594H133.453C133.562 17.8803 134.872 16.3502 136.811 16.3502Z" fill="#4B5563"/>
<path fill-rule="evenodd" clip-rule="evenodd" d="M11.2361 25.5302L4.88096 17.8741C3.80109 16.5732 2.05028 16.5732 0.970059 17.8741C-0.109811 19.1751 -0.109811 21.2842 0.970059 22.5856L9.28063 32.5975C10.3605 33.8984 12.1117 33.8984 13.1916 32.5975L21.0137 23.1737L17.1032 18.4621L11.2361 25.5302Z" fill="#4B5563"/>
<path fill-rule="evenodd" clip-rule="evenodd" d="M35.1904 10.8097L22.9699 25.5318L10.7481 10.808C9.66793 9.5067 7.91712 9.5067 6.83725 10.808C5.75738 12.109 5.75738 14.2182 6.83725 15.5195L21.0145 32.599C22.0944 33.9 23.8452 33.9 24.9254 32.599L39.1013 15.5212C40.1812 14.2199 40.1812 12.1106 39.1013 10.8097C38.0211 9.50877 36.2703 9.50877 35.1904 10.8097Z" fill="#4B5563"/>
<path fill-rule="evenodd" clip-rule="evenodd" d="M44.9685 22.5882L36.6593 32.5984C35.5794 33.8992 33.8287 33.8992 32.7488 32.5984L12.7044 8.45076C11.6246 7.14984 11.6246 5.04061 12.7044 3.73968C13.7847 2.43834 15.5354 2.43834 16.6153 3.73968L34.7038 25.531L41.0576 17.8766C42.1378 16.5758 43.8887 16.5758 44.9685 17.8766C46.0483 19.178 46.0483 21.2872 44.9685 22.5882Z" fill="#4B5563"/>
<path fill-rule="evenodd" clip-rule="evenodd" d="M33.2329 3.74132C32.153 2.44039 30.4023 2.44039 29.3221 3.74132L17.1016 18.4635L21.0126 23.1749L33.2329 8.45282C34.3128 7.15148 34.3128 5.04225 33.2329 3.74132Z" fill="#4B5563"/>
</svg>
