<svg width="120" height="36" viewBox="0 0 120 36" fill="none" xmlns="http://www.w3.org/2000/svg">
<g clip-path="url(#clip0_706_333)">
<path d="M51.0976 11.3125C49.6806 11.3125 49.0607 11.6774 47.8208 13.3197V12.5898C47.8208 11.7687 47.7323 11.6774 46.9352 11.6774H46.3153C45.5182 11.6774 45.4297 11.7687 45.4297 12.5898V25.6367C45.4297 26.4579 45.5182 26.5491 46.3153 26.5491H46.9352C47.7323 26.5491 47.8208 26.4579 47.8208 25.6367V18.7027C47.7323 17.5166 47.9094 16.2393 48.3522 15.1445C48.8836 14.1409 50.0349 13.5934 51.0976 13.7759C51.3633 13.7759 51.5404 13.8671 51.8061 13.9584C51.8946 13.9584 51.9832 13.9584 52.0718 13.9584C52.1603 13.9584 52.2489 13.8671 52.2489 13.7759C52.3374 13.5934 52.5146 13.411 52.6031 13.1372L52.7802 12.7723C52.8688 12.5898 52.9574 12.4073 53.0459 12.1336C53.0459 11.6774 52.1603 11.3125 51.0976 11.3125Z" fill="#4B5563"/>
<path d="M58.2688 20.3433C58.1802 21.2557 58.3573 22.2593 58.7116 23.1717C59.7743 24.8139 61.8998 25.1789 63.4939 24.084C63.8481 23.8103 64.1138 23.5366 64.3795 23.1717C64.7337 22.2593 64.9108 21.3469 64.8223 20.3433V12.5882C64.8223 11.767 64.9108 11.6758 65.7079 11.6758H66.4164C67.2134 11.6758 67.302 11.767 67.302 12.5882V20.617C67.302 22.8067 66.9477 23.9928 65.9736 25.0876C63.4939 27.551 59.5972 27.551 57.1175 25.0876C56.1433 23.9928 55.7891 22.8067 55.7891 20.617V12.5882C55.7891 11.767 55.8776 11.6758 56.6747 11.6758H57.2946C58.0916 11.6758 58.1802 11.767 58.1802 12.5882L58.2688 20.3433Z" fill="#4B5563"/>
<path d="M73.5929 19.0674C73.5929 22.352 75.5413 24.6329 78.4638 24.6329C81.3863 24.6329 83.1575 22.2607 83.1575 18.9762C83.3346 16.1479 81.2092 13.7757 78.5523 13.5932C78.4638 13.5932 78.4638 13.5932 78.3752 13.5932C75.6298 13.6845 73.5929 15.8741 73.5929 19.0674ZM73.7701 13.7757C75.0099 12.2247 76.8697 11.3123 78.818 11.3123C82.8033 11.3123 85.7258 14.5968 85.7258 19.0674C85.7258 23.5381 82.8033 26.9138 78.7295 26.9138C76.7811 26.9138 74.9213 26.0015 73.7701 24.4504V25.5453C73.7701 26.3664 73.6815 26.4577 72.8844 26.4577H72.2645C71.4675 26.4577 71.3789 26.3664 71.3789 25.5453V1.36745C71.3789 0.546315 71.4675 0.455078 72.2645 0.455078H72.8844C73.6815 0.455078 73.7701 0.546315 73.7701 1.36745V13.7757Z" fill="#4B5563"/>
<path d="M95.1119 11.3125C93.695 11.3125 93.075 11.6774 91.8352 13.3197V12.5898C91.8352 11.7687 91.7466 11.6774 90.9496 11.6774H90.2411C89.444 11.6774 89.3555 11.7687 89.3555 12.5898V25.6367C89.3555 26.4579 89.444 26.5491 90.2411 26.5491H90.9496C91.7466 26.5491 91.8352 26.4579 91.8352 25.6367V18.7027C91.7466 17.5166 91.9237 16.2393 92.3665 15.1445C92.8979 14.1409 94.0492 13.6847 95.1119 13.7759C95.3776 13.7759 95.5547 13.8671 95.8204 13.9584C95.909 13.9584 95.9975 13.9584 96.0861 13.9584C96.1747 13.9584 96.2632 13.8671 96.2632 13.7759C96.3518 13.5934 96.5289 13.411 96.6175 13.1372L96.7946 12.7723C96.8831 12.5898 96.9717 12.4073 97.0603 12.1336C97.1488 11.6774 96.2632 11.3125 95.1119 11.3125Z" fill="#4B5563"/>
<path d="M102.816 25.636C102.816 26.4572 102.727 26.5484 101.93 26.5484H101.222C100.425 26.5484 100.336 26.4572 100.336 25.636V12.5891C100.336 11.768 100.425 11.6768 101.222 11.6768H101.93C102.727 11.6768 102.816 11.768 102.816 12.5891V25.636ZM103.347 6.02005C103.347 7.02366 102.55 7.8448 101.576 7.8448C100.602 7.8448 99.8047 7.02366 99.8047 6.02005C99.8047 5.01645 100.602 4.19531 101.576 4.19531C102.55 4.19531 103.347 5.01645 103.347 6.02005Z" fill="#4B5563"/>
<path d="M114.683 12.0422C115.125 11.586 115.125 11.586 115.657 11.586H116.719C117.339 11.586 117.605 11.7685 117.605 12.1334C117.605 12.3159 117.517 12.4984 117.162 12.7721L112.114 17.9726L118.402 25.2716C118.668 25.6365 118.756 25.819 118.756 26.0015C118.756 26.3664 118.491 26.5489 117.871 26.5489H116.808C116.188 26.5489 116.188 26.5489 115.834 26.0927L110.432 19.7973L109.812 20.436V25.6365C109.812 26.4577 109.723 26.5489 108.926 26.5489H108.218C107.421 26.5489 107.332 26.4577 107.332 25.6365V1.36745C107.332 0.546315 107.421 0.455078 108.218 0.455078H108.926C109.723 0.455078 109.812 0.546315 109.812 1.36745V17.1515L114.683 12.0422Z" fill="#4B5563"/>
<mask id="mask0_706_333" style="mask-type:alpha" maskUnits="userSpaceOnUse" x="11" y="-1" width="12" height="13">
<path fill-rule="evenodd" clip-rule="evenodd" d="M16.9946 -0.0195312C16.906 -0.0195312 16.8175 0.0717059 16.7289 0.162943L12.0352 4.99851C11.7695 5.27222 11.7695 5.81964 12.0352 6.09336L16.7289 10.9289C16.9946 11.2026 17.526 11.2026 17.7917 10.9289L22.4854 6.09336C22.7511 5.81964 22.7511 5.27222 22.4854 4.99851L17.7917 0.162943C17.7031 0.0717059 17.6145 -0.0195312 17.526 -0.0195312C17.526 -0.0195312 16.9946 -0.0195312 16.9946 -0.0195312Z" fill="white"/>
</mask>
<g mask="url(#mask0_706_333)">
<path fill-rule="evenodd" clip-rule="evenodd" d="M17.0024 0C16.9139 0 16.8253 0.0912371 16.7367 0.182474L12.043 5.01804C11.7773 5.29175 11.7773 5.83918 12.043 6.11289L16.7367 10.9485C17.0024 11.2222 17.5338 11.2222 17.7995 10.9485L22.4932 6.11289C22.7589 5.83918 22.7589 5.29175 22.4932 5.01804L17.7995 0.182474C17.7109 0.0912371 17.6223 0 17.5338 0H17.0024Z" fill="#4B5563"/>
</g>
<mask id="mask1_706_333" style="mask-type:alpha" maskUnits="userSpaceOnUse" x="11" y="24" width="12" height="12">
<path fill-rule="evenodd" clip-rule="evenodd" d="M16.7289 24.4331L12.0352 29.2687C11.7695 29.5424 11.7695 29.9986 12.0352 30.3635L16.7289 35.1991C16.8175 35.2903 16.906 35.2903 16.906 35.3816H17.526C17.6145 35.3816 17.7031 35.2903 17.7031 35.1991L22.3968 30.3635C22.6625 30.0898 22.6625 29.6336 22.3968 29.2687L17.7917 24.4331C17.6145 24.2506 17.4374 24.1594 17.2603 24.2506C17.0832 24.1594 16.906 24.2506 16.7289 24.4331Z" fill="white"/>
</mask>
<g mask="url(#mask1_706_333)">
<path fill-rule="evenodd" clip-rule="evenodd" d="M16.7367 24.4507L12.043 29.2863C11.7773 29.56 11.7773 30.0162 12.043 30.3811L16.7367 35.2167C16.8253 35.3079 16.9139 35.3079 16.9139 35.3991H17.5338C17.6223 35.3991 17.7109 35.3079 17.7109 35.2167L22.4046 30.3811C22.6703 30.1074 22.6703 29.6512 22.4046 29.2863L17.7109 24.4507C17.5338 24.2682 17.3567 24.177 17.1795 24.2682C17.091 24.177 16.8253 24.2682 16.7367 24.4507Z" fill="#4B5563"/>
</g>
<mask id="mask2_706_333" style="mask-type:alpha" maskUnits="userSpaceOnUse" x="23" y="12" width="12" height="12">
<path fill-rule="evenodd" clip-rule="evenodd" d="M28.5024 12.2964L23.8086 17.132C23.543 17.4057 23.543 17.9531 23.8086 18.2268L28.5024 23.0624C28.768 23.3361 29.2994 23.3361 29.5651 23.0624L34.2588 18.2268C34.5245 17.9531 34.5245 17.4057 34.2588 17.132L29.5651 12.2964C29.388 12.1139 29.2108 12.1139 29.0337 12.1139C28.8566 12.0227 28.5909 12.1139 28.5024 12.2964Z" fill="white"/>
</mask>
<g mask="url(#mask2_706_333)">
<path fill-rule="evenodd" clip-rule="evenodd" d="M28.5141 12.3159L23.8204 17.1515C23.5547 17.4252 23.5547 17.9726 23.8204 18.2463L28.5141 23.0819C28.7798 23.3556 29.3111 23.3556 29.5768 23.0819L34.2705 18.2463C34.5362 17.9726 34.5362 17.4252 34.2705 17.1515L29.5768 12.3159C29.3997 12.1334 29.2226 12.1334 29.0454 12.1334C28.8683 12.0422 28.6026 12.1334 28.5141 12.3159Z" fill="#4B5563"/>
</g>
<mask id="mask3_706_333" style="mask-type:alpha" maskUnits="userSpaceOnUse" x="8" y="30" width="4" height="5">
<path fill-rule="evenodd" clip-rule="evenodd" d="M10.7906 30.4532L8.66513 32.6429C8.39945 32.8254 8.39945 33.1904 8.57657 33.3728C8.66513 33.4641 8.66513 33.4641 8.75369 33.5553L10.5249 34.4677C10.702 34.5589 11.0563 34.5589 11.1448 34.2852C11.2334 34.194 11.2334 34.1027 11.2334 34.0115V30.727C11.2334 30.4532 11.1448 30.362 11.0563 30.362C10.9677 30.2708 10.8792 30.362 10.7906 30.4532Z" fill="white"/>
</mask>
<g mask="url(#mask3_706_333)">
<path fill-rule="evenodd" clip-rule="evenodd" d="M10.8023 30.4728L8.67685 32.6625C8.41117 32.8449 8.41116 33.2099 8.58829 33.3924C8.67685 33.4836 8.67685 33.4836 8.76541 33.5748L10.5366 34.4872C10.7137 34.5784 11.068 34.5784 11.1566 34.3047C11.2451 34.2135 11.2451 34.1223 11.2451 34.031V30.7465C11.2451 30.4728 11.1566 30.3815 11.068 30.3815C10.9794 30.2903 10.8909 30.3815 10.8023 30.4728Z" fill="#4B5563"/>
</g>
<mask id="mask4_706_333" style="mask-type:alpha" maskUnits="userSpaceOnUse" x="23" y="30" width="3" height="5">
<path fill-rule="evenodd" clip-rule="evenodd" d="M23.1914 30.6359V33.9204C23.1914 34.1941 23.3685 34.3766 23.5456 34.4678C23.6342 34.4678 23.7228 34.4678 23.8113 34.3766L25.5826 33.4642C25.8482 33.373 25.9368 33.008 25.8482 32.7343C25.8482 32.6431 25.7597 32.5519 25.6711 32.5519L23.5456 30.3622C23.4571 30.2709 23.3685 30.1797 23.28 30.1797C23.28 30.2709 23.1914 30.3622 23.1914 30.6359Z" fill="white"/>
</mask>
<g mask="url(#mask4_706_333)">
<path fill-rule="evenodd" clip-rule="evenodd" d="M23.1992 30.6554V33.9399C23.1992 34.2137 23.3763 34.3961 23.5535 34.4874C23.642 34.4874 23.7306 34.4874 23.8191 34.3961L25.5904 33.4838C25.856 33.3925 25.9446 33.0276 25.856 32.7539C25.856 32.6626 25.7675 32.5714 25.6789 32.5714L23.5535 30.3817C23.4649 30.2905 23.3763 30.1992 23.2878 30.1992C23.2878 30.2905 23.1992 30.3817 23.1992 30.6554Z" fill="#4B5563"/>
</g>
<mask id="mask5_706_333" style="mask-type:alpha" maskUnits="userSpaceOnUse" x="23" y="23" width="6" height="7">
<path fill-rule="evenodd" clip-rule="evenodd" d="M23.8999 23.793C23.4571 23.793 23.1914 24.1579 23.1914 24.5229V28.9022C23.1914 29.3584 23.5456 29.6321 23.8999 29.6321H28.1508C28.5936 29.6321 28.9479 29.3584 28.9479 28.9022V24.5229C28.9479 24.0667 28.5936 23.793 28.2394 23.793H23.8999Z" fill="white"/>
</mask>
<g mask="url(#mask5_706_333)">
<path fill-rule="evenodd" clip-rule="evenodd" d="M23.9077 23.8125C23.4649 23.8125 23.1992 24.1774 23.1992 24.5424V28.9218C23.1992 29.378 23.5535 29.6517 23.9077 29.6517H28.1586C28.6014 29.6517 28.9557 29.378 28.9557 28.9218V24.5424C28.9557 24.0862 28.6014 23.8125 28.2472 23.8125C28.2472 23.8125 23.9077 23.8125 23.9077 23.8125Z" fill="#4B5563"/>
</g>
<mask id="mask6_706_333" style="mask-type:alpha" maskUnits="userSpaceOnUse" x="29" y="8" width="5" height="4">
<path fill-rule="evenodd" clip-rule="evenodd" d="M31.7799 8.92076L29.6545 11.1104C29.3888 11.3842 29.4774 11.6579 29.8316 11.6579H33.0198C33.2855 11.6579 33.5512 11.4754 33.5512 11.2017C33.5512 11.1104 33.5512 11.0192 33.4626 10.928L32.577 9.10323C32.4884 8.92076 32.3113 8.73828 32.1342 8.73828C31.9571 8.73828 31.8685 8.82952 31.7799 8.92076Z" fill="white"/>
</mask>
<g mask="url(#mask6_706_333)">
<path fill-rule="evenodd" clip-rule="evenodd" d="M31.7878 8.94029L29.6623 11.13C29.3966 11.4037 29.4852 11.6774 29.8394 11.6774H33.0276C33.2933 11.6774 33.559 11.4949 33.559 11.2212C33.559 11.13 33.559 11.0387 33.4704 10.9475L32.5848 9.12276C32.4962 8.94029 32.3191 8.75781 32.142 8.75781C31.9649 8.75781 31.8763 8.84905 31.7878 8.94029Z" fill="#4B5563"/>
</g>
<mask id="mask7_706_333" style="mask-type:alpha" maskUnits="userSpaceOnUse" x="23" y="0" width="4" height="6">
<path fill-rule="evenodd" clip-rule="evenodd" d="M23.1914 1.44V4.72454C23.1914 5.18072 23.4571 5.27196 23.7228 4.90701L25.8482 2.71732C26.1139 2.53485 26.1139 2.1699 25.9368 1.98742C25.8482 1.89619 25.8482 1.89619 25.7597 1.80495L23.9885 0.892578C23.8999 0.892578 23.8113 0.892578 23.8113 0.892578C23.3685 0.892578 23.1914 1.07505 23.1914 1.44Z" fill="white"/>
</mask>
<g mask="url(#mask7_706_333)">
<path fill-rule="evenodd" clip-rule="evenodd" d="M23.1992 1.45758V4.74211C23.1992 5.1983 23.4649 5.28954 23.7306 4.92459L25.7675 2.7349C26.0332 2.55242 26.0332 2.18748 25.856 2.005C25.7675 1.91376 25.7675 1.91376 25.6789 1.82253L23.9077 0.910156C23.8191 0.910156 23.7306 0.910156 23.7306 0.910156C23.3763 0.910156 23.1992 1.09263 23.1992 1.45758C23.1992 1.45758 23.1992 1.36634 23.1992 1.45758Z" fill="#4B5563"/>
</g>
<mask id="mask8_706_333" style="mask-type:alpha" maskUnits="userSpaceOnUse" x="0" y="8" width="5" height="4">
<path fill-rule="evenodd" clip-rule="evenodd" d="M1.84873 9.01199L0.963122 10.8367C0.874562 11.0192 0.874562 11.3842 1.14024 11.4754C1.22881 11.5666 1.31737 11.5666 1.40593 11.5666H4.59412C5.03692 11.5666 5.12548 11.2929 4.77124 11.0192L2.73434 8.92076C2.64578 8.82952 2.46866 8.73828 2.29154 8.73828C2.11441 8.73828 1.93729 8.82952 1.84873 9.01199Z" fill="white"/>
</mask>
<g mask="url(#mask8_706_333)">
<path fill-rule="evenodd" clip-rule="evenodd" d="M1.85654 9.03152L0.970935 10.8563C0.882374 11.0387 0.882374 11.4037 1.14806 11.4949C1.23662 11.5862 1.32518 11.5862 1.41374 11.5862H4.60193C5.04474 11.5862 5.1333 11.3125 4.77905 11.0387L2.74215 8.94029C2.65359 8.84905 2.47647 8.75781 2.29935 8.75781C2.12223 8.75781 1.9451 8.84905 1.85654 9.03152Z" fill="#4B5563"/>
</g>
<mask id="mask9_706_333" style="mask-type:alpha" maskUnits="userSpaceOnUse" x="5" y="5" width="7" height="7">
<path fill-rule="evenodd" clip-rule="evenodd" d="M6.36736 5.72852C5.92456 5.72852 5.57031 6.00223 5.57031 6.45841V10.8378C5.57031 11.294 5.92456 11.5677 6.2788 11.5677H10.5297C10.9725 11.5677 11.2382 11.2027 11.2382 10.8378V6.45841C11.2382 6.00223 10.884 5.72852 10.5297 5.72852C10.6183 5.72852 6.36736 5.72852 6.36736 5.72852Z" fill="white"/>
</mask>
<g mask="url(#mask9_706_333)">
<path fill-rule="evenodd" clip-rule="evenodd" d="M6.37255 5.65625C5.92974 5.65625 5.66406 6.0212 5.66406 6.38615V10.7655C5.66406 11.2217 6.01831 11.4954 6.37255 11.4954H10.6235C11.0663 11.4954 11.332 11.1305 11.332 10.7655V6.47738C11.332 6.0212 10.9777 5.74749 10.6235 5.74749C10.6235 5.74749 6.37255 5.74749 6.37255 5.65625Z" fill="#4B5563"/>
</g>
<mask id="mask10_706_333" style="mask-type:alpha" maskUnits="userSpaceOnUse" x="8" y="0" width="4" height="6">
<path fill-rule="evenodd" clip-rule="evenodd" d="M10.617 0.983815L8.84577 1.89619C8.58009 1.98742 8.49152 2.35237 8.58009 2.62608C8.58009 2.71732 8.66865 2.80856 8.75721 2.80856L10.8827 4.99825C11.1484 5.27196 11.414 5.18072 11.414 4.81577V1.44C11.414 1.16629 11.2369 0.983815 11.0598 0.892578C11.0598 0.892578 11.0598 0.892578 10.9712 0.892578C10.8827 0.892578 10.7941 0.983815 10.617 0.983815Z" fill="white"/>
</mask>
<g mask="url(#mask10_706_333)">
<path fill-rule="evenodd" clip-rule="evenodd" d="M10.6248 1.00139L8.85358 1.91376C8.5879 2.005 8.49934 2.27871 8.5879 2.55242C8.5879 2.64366 8.67646 2.7349 8.76502 2.7349L10.8905 4.92459C11.1562 5.1983 11.4218 5.10706 11.4218 4.74212V1.45758C11.4218 1.18387 11.2447 1.00139 11.0676 0.910156C11.0676 0.910156 11.0676 0.910156 10.979 0.910156C10.8905 0.910156 10.8019 0.910156 10.6248 1.00139Z" fill="#4B5563"/>
</g>
<mask id="mask11_706_333" style="mask-type:alpha" maskUnits="userSpaceOnUse" x="29" y="23" width="5" height="4">
<path fill-rule="evenodd" clip-rule="evenodd" d="M29.9191 23.793C29.4763 23.793 29.3878 24.0667 29.742 24.3404L31.8675 26.5301C32.0446 26.7126 32.3988 26.8038 32.576 26.6213C32.6645 26.5301 32.6645 26.5301 32.7531 26.4388L33.6387 24.6141C33.7273 24.3404 33.7273 24.0667 33.4616 23.9754C33.373 23.8842 33.2845 23.8842 33.1959 23.8842L29.9191 23.793Z" fill="white"/>
</mask>
<g mask="url(#mask11_706_333)">
<path fill-rule="evenodd" clip-rule="evenodd" d="M29.9307 23.8125C29.4879 23.8125 29.3993 24.0862 29.7536 24.3599L31.879 26.5496C32.0562 26.7321 32.4104 26.8233 32.5875 26.6409C32.6761 26.5496 32.6761 26.5496 32.7647 26.4584L33.6503 24.6336C33.7388 24.3599 33.7388 24.0862 33.4731 23.995C33.3846 23.9037 33.296 23.9037 33.2075 23.9037L29.9307 23.8125Z" fill="#4B5563"/>
</g>
<mask id="mask12_706_333" style="mask-type:alpha" maskUnits="userSpaceOnUse" x="5" y="23" width="7" height="7">
<path fill-rule="evenodd" clip-rule="evenodd" d="M6.36474 23.793C5.92193 23.793 5.65625 24.1579 5.65625 24.5229V28.9022C5.65625 29.3584 6.01049 29.6321 6.36474 29.6321H10.6157C11.0585 29.6321 11.3241 29.2672 11.3241 28.9022V24.5229C11.3241 24.0667 10.9699 23.793 10.6157 23.793H6.36474Z" fill="white"/>
</mask>
<g mask="url(#mask12_706_333)">
<path fill-rule="evenodd" clip-rule="evenodd" d="M6.37255 23.8125C5.92974 23.8125 5.66406 24.1774 5.66406 24.5424V28.9218C5.66406 29.378 6.01831 29.6517 6.37255 29.6517H10.6235C11.0663 29.6517 11.332 29.2867 11.332 28.9218V24.5424C11.332 24.0862 10.9777 23.8125 10.6235 23.8125C10.6235 23.8125 6.37255 23.8125 6.37255 23.8125Z" fill="#4B5563"/>
</g>
<mask id="mask13_706_333" style="mask-type:alpha" maskUnits="userSpaceOnUse" x="0" y="23" width="6" height="4">
<path fill-rule="evenodd" clip-rule="evenodd" d="M1.40637 23.7938C1.14068 23.7938 0.963561 23.9763 0.875 24.1588C0.875 24.25 0.875 24.3412 0.963561 24.4325L1.84917 26.2572C1.93773 26.5309 2.29197 26.6222 2.55766 26.5309C2.64622 26.5309 2.73478 26.4397 2.73478 26.3484L4.86024 24.1588C5.12592 23.885 5.03736 23.6113 4.68312 23.6113L1.40637 23.7938Z" fill="white"/>
</mask>
<g mask="url(#mask13_706_333)">
<path fill-rule="evenodd" clip-rule="evenodd" d="M1.41418 23.8119C1.1485 23.8119 0.971373 23.9944 0.882812 24.1769C0.882812 24.2681 0.882813 24.3594 0.971373 24.4506L1.85698 26.2753C1.94554 26.5491 2.29979 26.6403 2.56547 26.5491C2.65403 26.5491 2.74259 26.4578 2.74259 26.4578L4.86805 24.2681C5.13374 23.9944 5.04517 23.7207 4.60237 23.7207L1.41418 23.8119Z" fill="#4B5563"/>
</g>
<mask id="mask14_706_333" style="mask-type:alpha" maskUnits="userSpaceOnUse" x="23" y="5" width="6" height="7">
<path fill-rule="evenodd" clip-rule="evenodd" d="M23.8997 5.72852C23.4569 5.72852 23.1912 6.09346 23.1912 6.45841V10.8378C23.1912 11.294 23.5455 11.5677 23.8997 11.5677H28.1506C28.5934 11.5677 28.8591 11.2027 28.8591 10.8378V6.45841C28.8591 6.00223 28.5049 5.72852 28.1506 5.72852H23.8997Z" fill="white"/>
</mask>
<g mask="url(#mask14_706_333)">
<path fill-rule="evenodd" clip-rule="evenodd" d="M23.9077 5.65625C23.4649 5.65625 23.1992 6.0212 23.1992 6.38615V10.7655C23.1992 11.2217 23.5535 11.4954 23.9077 11.4954H28.1586C28.6014 11.4954 28.8671 11.1305 28.8671 10.7655V6.47738C28.8671 6.0212 28.5129 5.74749 28.1586 5.74749C28.1586 5.74749 23.9077 5.74749 23.9077 5.65625Z" fill="#4B5563"/>
</g>
<mask id="mask15_706_333" style="mask-type:alpha" maskUnits="userSpaceOnUse" x="0" y="12" width="11" height="12">
<path fill-rule="evenodd" clip-rule="evenodd" d="M4.94768 12.2983L0.253949 17.1339C-0.0117332 17.4076 -0.0117332 17.955 0.253949 18.2288L4.94768 23.0643C5.21336 23.338 5.74472 23.338 6.01041 23.0643L10.7041 18.2288C10.9698 17.955 10.9698 17.4076 10.7041 17.1339L6.01041 12.2983C5.83329 12.1159 5.65616 12.1159 5.47904 12.1159C5.30192 12.0246 5.1248 12.1159 4.94768 12.2983Z" fill="white"/>
</mask>
<g mask="url(#mask15_706_333)">
<path fill-rule="evenodd" clip-rule="evenodd" d="M4.95549 12.3159L0.261762 17.1515C-0.00392067 17.4252 -0.00392067 17.9726 0.261762 18.2463L4.95549 23.0819C5.22117 23.3556 5.75254 23.3556 6.01822 23.0819L10.7119 18.2463C10.9776 17.9726 10.9776 17.4252 10.7119 17.1515L6.01822 12.3159C5.8411 12.1334 5.66398 12.1334 5.48685 12.1334C5.30973 12.0422 5.04405 12.1334 4.95549 12.3159Z" fill="#4B5563"/>
</g>
<path fill-rule="evenodd" clip-rule="evenodd" d="M119.109 12.4057C119.287 12.4057 119.375 12.4057 119.375 12.3144C119.375 12.2232 119.287 12.2232 119.198 12.2232H119.109V12.4057ZM119.109 12.7706H118.932V12.0407H119.198C119.287 12.0407 119.375 12.0407 119.464 12.132C119.552 12.132 119.552 12.2232 119.552 12.3144C119.552 12.4057 119.464 12.4969 119.375 12.4969C119.464 12.4969 119.464 12.5882 119.464 12.6794C119.464 12.7706 119.464 12.7706 119.552 12.8619H119.375C119.375 12.7706 119.287 12.7706 119.287 12.6794C119.287 12.5882 119.198 12.5882 119.109 12.5882H119.021L119.109 12.7706ZM118.667 12.4057C118.667 12.6794 118.932 12.9531 119.198 12.9531C119.552 12.9531 119.729 12.5882 119.729 12.3144C119.729 12.0407 119.464 11.8583 119.198 11.767C118.932 11.8583 118.667 12.0407 118.667 12.4057ZM119.995 12.4057C119.995 12.7706 119.729 13.1356 119.287 13.1356C118.932 13.1356 118.578 12.7706 118.578 12.4057C118.578 12.0407 118.932 11.6758 119.287 11.6758C119.641 11.6758 119.907 11.9495 119.995 12.4057Z" fill="#4B5563"/>
</g>
<defs>
<clipPath id="clip0_706_333">
<rect width="120" height="35.4" fill="white"/>
</clipPath>
</defs>
</svg>
