<svg width="144" height="33" viewBox="0 0 144 33" fill="none" xmlns="http://www.w3.org/2000/svg">
<path d="M18.8603 12.1112H27.5313V27.3833H0V12.1112H8.67105V19.7456H18.8603V12.1112ZM48.1522 19.943C48.1522 22.5275 46.4357 24.0563 44.0891 24.0563C41.7962 24.0563 40.0544 22.5275 40.0544 19.943V7.64701H36.2055V19.9054C36.2055 24.7455 39.6702 27.8031 44.0986 27.8031C48.527 27.8031 52.02 24.7455 52.02 19.9054V7.64701H48.1617L48.1522 19.943ZM61.9163 13.3235C60.436 13.3235 58.7855 13.9501 57.9477 15.3817V13.6869H54.3413V27.3582H58.0611V19.495C58.0611 17.9287 59.006 16.6756 60.6312 16.6756C62.4203 16.6756 63.1762 17.8723 63.1762 19.401V27.3582H66.8928V18.74C66.9022 15.7357 65.3369 13.3173 61.9258 13.3173L61.9163 13.3235ZM75.5575 19.0784L73.5166 18.6617C72.7386 18.5051 72.2567 18.1072 72.2567 17.44C72.2567 16.6599 72.9591 16.0772 73.9355 16.0772C75.3087 16.0772 75.8536 16.7821 75.9859 17.606H79.1923C79.1671 15.7263 77.671 13.2703 73.9922 13.2703C71.0283 13.2703 68.8487 15.2972 68.8487 17.7438C68.8487 19.6642 70.0488 21.2494 72.7039 21.8164L74.6095 22.233C75.6709 22.4555 76.0898 22.9567 76.0898 23.5676C76.0898 24.2913 75.4158 24.9303 74.2 24.9303C72.7165 24.9303 71.9102 24.0908 71.7212 23.1165H68.4141C68.5999 25.1622 70.0897 27.7655 74.2284 27.7655C77.8348 27.7655 79.6521 25.4848 79.6521 23.2606C79.649 21.2682 78.2789 19.6297 75.567 19.0721L75.5575 19.0784ZM95.4603 20.4975C95.4603 24.639 92.8587 27.7028 88.9752 27.7028C87.0854 27.7028 85.6743 26.9509 85.0034 26.0331V32.6525H81.2868V13.6807H84.8932V15.3755C85.5231 14.3197 87.0444 13.3737 89.1137 13.3737C93.1485 13.3737 95.4698 16.4312 95.4698 20.4912L95.4603 20.4975ZM91.7973 20.5257C91.7973 18.1072 90.2886 16.6881 88.3862 16.6881C86.4838 16.6881 84.9499 18.1072 84.9499 20.5257C84.9499 22.9442 86.4869 24.3884 88.3862 24.3884C90.2854 24.3884 91.8225 22.9661 91.8225 20.5194L91.7973 20.5257ZM113.215 13.6869H116.821V27.3582H113.105V25.6947C112.475 26.7912 111.035 27.6934 109.133 27.6934C105.25 27.6934 102.648 24.6327 102.648 20.4881C102.648 16.4155 104.969 13.3705 108.994 13.3705C111.064 13.3705 112.56 14.326 113.215 15.3723V13.6869ZM113.158 20.5257C113.158 18.1072 111.621 16.6881 109.722 16.6881C107.823 16.6881 106.311 18.101 106.311 20.5194C106.311 22.9379 107.82 24.3821 109.722 24.3821C111.624 24.3821 113.162 22.941 113.162 20.5194L113.158 20.5257ZM97.2021 27.3582H100.919V7.64701H97.2021V27.3582ZM138.888 13.3204C137.575 13.3204 136.053 13.7621 135.168 14.8179V7.64701H131.452V27.3551H135.168V19.3227C135.253 17.819 136.176 16.6536 137.742 16.6536C139.531 16.6536 140.287 17.8535 140.283 19.3822V27.3613H144.003V18.74C144 15.7357 142.381 13.3204 138.888 13.3204ZM125.659 19.0721L123.634 18.6555C122.856 18.4988 122.374 18.101 122.374 17.4337C122.374 16.6536 123.074 16.0709 124.053 16.0709C125.423 16.0709 125.968 16.7758 126.1 17.5997H129.304C129.278 15.7201 127.782 13.264 124.103 13.264C121.14 13.264 118.96 15.2909 118.96 17.7376C118.96 19.6579 120.163 21.2431 122.818 21.8101L124.708 22.2268C125.77 22.4492 126.189 22.9504 126.189 23.5613C126.189 24.285 125.515 24.9241 124.299 24.9241C122.815 24.9241 122.009 24.0845 121.82 23.1102H118.516C118.699 25.1559 120.188 27.7592 124.327 27.7592C127.933 27.7592 129.751 25.4786 129.751 23.2543C129.751 21.2682 128.381 19.6297 125.672 19.0721H125.659ZM18.8603 0H8.67105V7.63448H18.8603V0Z" fill="#4B5563"/>
</svg>
