<svg width="114" height="24" viewBox="0 0 114 24" fill="none" xmlns="http://www.w3.org/2000/svg">
<path d="M113.18 10.8575V8.88144H110.726V5.80949L110.643 5.83493L108.338 6.54012L108.293 6.55392V8.88155H104.655V7.58486C104.655 6.98108 104.79 6.51903 105.056 6.21089C105.321 5.90645 105.698 5.75167 106.18 5.75167C106.527 5.75167 106.886 5.8333 107.247 5.99427L107.337 6.0347V3.95369L107.295 3.93804C106.958 3.81696 106.5 3.75598 105.932 3.75598C105.216 3.75598 104.566 3.91174 103.999 4.22042C103.431 4.52954 102.985 4.97083 102.672 5.53189C102.361 6.09231 102.202 6.73957 102.202 7.45584V8.88144H100.494V10.8575H102.202V19.182H104.655V10.8575H108.293V16.1476C108.293 18.3263 109.321 19.4304 111.347 19.4304C111.68 19.4304 112.031 19.3914 112.389 19.315C112.753 19.2365 113.001 19.1581 113.147 19.0744L113.18 19.0553V17.061L113.08 17.127C112.947 17.2157 112.781 17.2882 112.587 17.3421C112.392 17.397 112.229 17.4245 112.102 17.4245C111.627 17.4245 111.276 17.2966 111.058 17.0441C110.838 16.7893 110.726 16.3438 110.726 15.7205V10.8575H113.18ZM95.0161 17.4248C94.1258 17.4248 93.4239 17.1296 92.9292 16.5481C92.4315 15.9637 92.1794 15.1305 92.1794 14.0718C92.1794 12.9796 92.4315 12.1247 92.9295 11.5299C93.4244 10.9391 94.1196 10.6392 94.9961 10.6392C95.8466 10.6392 96.5237 10.9256 97.0087 11.4909C97.496 12.0592 97.7434 12.9072 97.7434 14.0121C97.7434 15.1307 97.5108 15.9899 97.0521 16.5646C96.5966 17.1351 95.9116 17.4248 95.0161 17.4248ZM95.1251 8.6333C93.4266 8.6333 92.0775 9.131 91.1156 10.1126C90.1543 11.0943 89.667 12.4528 89.667 14.1508C89.667 15.7636 90.1427 17.0608 91.0812 18.0059C92.0196 18.9513 93.2967 19.4302 94.8768 19.4302C96.5232 19.4302 97.8455 18.9255 98.807 17.9304C99.7683 16.9363 100.255 15.5905 100.255 13.9322C100.255 12.2943 99.7983 10.9873 98.8965 10.0486C97.9943 9.10937 96.7252 8.6333 95.1251 8.6333ZM85.7122 8.6333C84.5568 8.6333 83.6011 8.92883 82.871 9.51153C82.1365 10.0977 81.7639 10.8665 81.7639 11.7968C81.7639 12.2803 81.8443 12.7099 82.0026 13.0742C82.1618 13.4398 82.4082 13.7616 82.7356 14.0317C83.0605 14.2996 83.562 14.5803 84.2265 14.8658C84.7852 15.0957 85.2018 15.2901 85.4665 15.4434C85.7252 15.5936 85.9087 15.7446 86.0124 15.8916C86.1132 16.0355 86.1643 16.2325 86.1643 16.4755C86.1643 17.1676 85.646 17.5043 84.5797 17.5043C84.1841 17.5043 83.733 17.4217 83.2387 17.2589C82.748 17.0985 82.2849 16.8637 81.8655 16.5626L81.7637 16.4895V18.8511L81.8011 18.8685C82.1481 19.0287 82.5857 19.1638 83.1015 19.2701C83.6162 19.3765 84.0839 19.4306 84.4902 19.4306C85.744 19.4306 86.7536 19.1337 87.4903 18.5475C88.2317 17.9573 88.6075 17.1704 88.6075 16.2079C88.6075 15.5136 88.4052 14.9182 88.0065 14.438C87.6105 13.9617 86.9233 13.5244 85.9647 13.1379C85.2011 12.8314 84.7118 12.577 84.51 12.3816C84.3154 12.193 84.2166 11.9261 84.2166 11.5882C84.2166 11.2886 84.3386 11.0486 84.5889 10.8543C84.8412 10.659 85.1924 10.5596 85.6328 10.5596C86.0415 10.5596 86.4596 10.6242 86.8755 10.7507C87.291 10.8772 87.656 11.0467 87.9606 11.254L88.0608 11.3224V9.08231L88.0224 9.06579C87.7413 8.94525 87.3707 8.8421 86.9204 8.75841C86.4723 8.67526 86.0658 8.6333 85.7122 8.6333ZM75.3695 17.4248C74.4794 17.4248 73.7773 17.1296 73.2827 16.5481C72.7849 15.9637 72.5332 15.1307 72.5332 14.0718C72.5332 12.9796 72.7852 12.1247 73.2833 11.5299C73.7778 10.9391 74.4729 10.6392 75.3498 10.6392C76.2 10.6392 76.877 10.9256 77.3621 11.4909C77.8496 12.0592 78.0969 12.9072 78.0969 14.0121C78.0969 15.1307 77.8642 15.9899 77.4055 16.5646C76.95 17.1351 76.2653 17.4248 75.3695 17.4248ZM75.4788 8.6333C73.7799 8.6333 72.4307 9.131 71.4693 10.1126C70.508 11.0943 70.0203 12.4528 70.0203 14.1508C70.0203 15.7642 70.4964 17.0608 71.4349 18.0059C72.3733 18.9513 73.6503 19.4302 75.2304 19.4302C76.8766 19.4302 78.1992 18.9255 79.1606 17.9304C80.1218 16.9363 80.6091 15.5905 80.6091 13.9322C80.6091 12.2943 80.1519 10.9873 79.2499 10.0486C78.3474 9.10937 77.0785 8.6333 75.4788 8.6333ZM66.297 10.6653V8.88144H63.8741V19.1818H66.297V13.9128C66.297 13.0168 66.5002 12.2808 66.901 11.7248C67.2968 11.1755 67.8241 10.8971 68.468 10.8971C68.6863 10.8971 68.9312 10.9331 69.1966 11.0043C69.4592 11.0751 69.6494 11.1519 69.7615 11.2328L69.8634 11.3066V8.86384L69.8242 8.84699C69.5985 8.75112 69.2793 8.70276 68.8754 8.70276C68.2665 8.70276 67.7216 8.8984 67.2549 9.2836C66.8452 9.62218 66.5492 10.0864 66.3228 10.6653H66.297ZM59.535 8.6333C58.4234 8.6333 57.4319 8.87166 56.5886 9.34154C55.7435 9.8125 55.0899 10.4849 54.6453 11.3398C54.2026 12.1927 53.9778 13.189 53.9778 14.3C53.9778 15.2733 54.1957 16.1664 54.6265 16.9535C55.0574 17.742 55.6674 18.3588 56.4396 18.7866C57.2106 19.2139 58.1018 19.4305 59.0885 19.4305C60.24 19.4305 61.2231 19.2003 62.0113 18.7463L62.0431 18.728V16.5082L61.9413 16.5826C61.5843 16.8427 61.1852 17.0503 60.7559 17.1998C60.3277 17.3493 59.9372 17.4248 59.5949 17.4248C58.6441 17.4248 57.8809 17.1273 57.3269 16.5408C56.7717 15.9536 56.4902 15.1289 56.4902 14.0913C56.4902 13.0471 56.7838 12.2012 57.3623 11.5771C57.9392 10.9548 58.7038 10.6392 59.6349 10.6392C60.4312 10.6392 61.2073 10.9089 61.9415 11.4415L62.0431 11.5153V9.17633L62.0103 9.15785C61.734 9.00318 61.3572 8.87547 60.8894 8.77862C60.4235 8.682 59.9679 8.6333 59.535 8.6333ZM52.3091 8.88155H49.8861V19.1818H52.3091V8.88155ZM51.1224 4.49356C50.7236 4.49356 50.3758 4.62932 50.09 4.89833C49.8031 5.1681 49.6575 5.50776 49.6575 5.90862C49.6575 6.30317 49.8013 6.63664 50.0856 6.89924C50.3679 7.16107 50.7168 7.29379 51.1225 7.29379C51.528 7.29379 51.8782 7.16107 52.164 6.89967C52.4516 6.63664 52.5974 6.30328 52.5974 5.90862C52.5974 5.52179 52.4555 5.1856 52.1758 4.9092C51.8964 4.63334 51.5418 4.49356 51.1224 4.49356ZM45.077 8.12158V19.1818H47.5497V4.80888H44.1273L39.7773 15.4847L35.5558 4.80888H31.9941V19.1817H34.3178V8.12049H34.3976L38.8553 19.1818H40.609L44.9972 8.12158H45.077Z" fill="#4B5563"/>
<path d="M12.2185 11.4041H0.820251V0.00585938H12.2185V11.4041Z" fill="#4B5563"/>
<path d="M24.8033 11.4041H13.4052V0.00585938H24.8033V11.4041Z" fill="#4B5563"/>
<path d="M12.2182 23.9935H0.820251V12.5954H12.2182V23.9935Z" fill="#4B5563"/>
<path d="M24.8033 23.9935H13.4052V12.5954H24.8033V23.9935Z" fill="#4B5563"/>
</svg>
