<svg width="104" height="18" viewBox="0 0 104 18" fill="none" xmlns="http://www.w3.org/2000/svg">
<path d="M50.6323 11.2545C50.5494 11.4614 50.0107 12.4545 48.7259 12.4545C47.2338 12.4545 46.6536 11.2131 46.6536 10.3027C46.6536 8.81308 47.6897 7.44757 49.1818 7.44757C50.7981 7.44757 51.1711 8.64757 51.2126 8.85446H53.5749C53.6992 7.9855 52.9947 5.25446 49.2646 5.25446C46.5293 5.25446 44.3327 7.44757 44.3327 10.3441C44.3327 12.7441 45.8247 14.5648 48.6015 14.5648C52.0414 14.5648 52.9947 11.8752 53.119 11.2131L50.6323 11.2545Z" fill="#4B5563"/>
<path d="M32.4795 11.9165C32.4795 11.7924 32.5209 11.5027 32.6452 10.9648C32.7696 10.4269 34.4274 2.7303 34.4274 2.7303H32.1894L30.3658 11.2131C30.2829 11.5855 30.2414 11.9165 30.2414 12.2475C30.2414 14.1096 31.692 14.6475 32.8525 14.6475C33.2669 14.6475 33.6399 14.5648 33.7643 14.5648C33.8057 14.3993 34.1373 12.7855 34.1787 12.7027C34.1373 12.7027 33.8886 12.7441 33.5985 12.7441C32.7281 12.7027 32.4795 12.3717 32.4795 11.9165Z" fill="#4B5563"/>
<path d="M64.019 5.29583H60.9106L56.9319 8.89583L58.2996 2.68893H56.0616L53.492 14.4407H55.73L56.3517 11.5855L57.7194 10.5096L59.6259 14.4407H62.1125L59.4186 9.1441L64.019 5.29583Z" fill="#4B5563"/>
<path d="M20.2532 10.7993C20.419 9.97169 22.0354 2.68893 22.0354 2.68893C22.0354 2.68893 24.7707 2.68893 26.2627 2.68893C29.3297 2.68893 30.0757 4.38548 30.0757 5.41997C30.0757 7.69583 27.9205 8.31652 27.6304 8.39928C27.8791 8.48203 29.2882 9.01996 29.2882 10.8407C29.2882 12.7855 27.4646 14.4407 24.6878 14.4407C24.6878 14.4407 23.6931 14.4407 23.403 14.4407C21.0821 14.4407 19.7973 12.8269 20.2532 10.7993ZM26.8844 10.6751C26.8844 10.1372 26.5114 9.43376 24.9365 9.43376H22.8643L22.284 12.2476H24.6049C26.097 12.2476 26.8844 11.5855 26.8844 10.6751ZM27.6304 5.91652C27.6304 5.33721 27.1745 4.84066 26.1384 4.84066H23.8589L23.3616 7.19928H25.7239C27.0087 7.24065 27.6304 6.61997 27.6304 5.91652Z" fill="#4B5563"/>
<path d="M62.9829 10.7993C63.1487 9.97169 64.765 2.68893 64.765 2.68893C64.765 2.68893 67.5004 2.68893 68.9924 2.68893C72.0593 2.68893 72.8053 4.38548 72.8053 5.41997C72.8053 7.69583 70.6502 8.31652 70.3601 8.39928C70.6088 8.48203 72.0179 9.01996 72.0179 10.8407C72.0179 12.7855 70.1943 14.4407 67.4175 14.4407C67.4175 14.4407 66.4228 14.4407 66.1327 14.4407C63.8118 14.4407 62.5684 12.8269 62.9829 10.7993ZM69.6141 10.6751C69.6141 10.1372 69.2411 9.43376 67.6662 9.43376H65.5939L64.9722 12.2889H67.2932C68.8681 12.2475 69.6141 11.5855 69.6141 10.6751ZM70.4015 5.91652C70.4015 5.33721 69.9871 4.84066 68.9095 4.84066H66.63L66.1327 7.19928H68.4951C69.7384 7.24065 70.4015 6.61997 70.4015 5.91652Z" fill="#4B5563"/>
<path d="M88.1814 5.29583C85.819 5.29583 84.2027 6.70273 83.6639 9.30963C83.4152 10.4269 82.5863 14.3993 82.5863 14.3993H84.8243C84.8243 14.3993 85.6532 10.6338 85.9019 9.43376C86.2335 7.86135 87.0624 7.3648 88.1814 7.3648C88.5544 7.3648 88.7616 7.40618 88.8859 7.40618C88.9274 7.07514 89.2589 5.66825 89.3418 5.33721C89.0517 5.37859 88.6787 5.29583 88.1814 5.29583Z" fill="#4B5563"/>
<path d="M95.7243 17.9165L103.184 5.29583H100.781L97.3407 11.2545L96.5532 5.29583C96.5532 5.29583 95.3513 5.29583 93.9837 5.29583C91.0411 5.29583 89.5076 6.61997 88.9688 9.18549C88.6787 10.4682 87.8498 14.3993 87.8498 14.3993H90.0878C90.0878 14.3993 90.9167 10.6338 91.2068 9.14411C91.5384 7.69583 92.616 7.24066 93.7764 7.48894L94.2323 5.33721C94.5639 7.3648 95.6414 13.9441 95.6414 13.9441L93.3205 17.9165H95.7243Z" fill="#4B5563"/>
<path d="M38.862 10.551C39.3593 10.4682 40.7684 10.2614 40.9757 10.22C40.9342 10.3855 40.8928 10.6338 40.8513 10.7993C40.6027 11.9165 39.4837 12.62 38.2403 12.62C37.4529 12.62 36.997 12.2062 36.997 11.6682C36.9555 11.2545 37.37 10.7579 38.862 10.551ZM38.0331 8.15101C38.0745 8.06825 38.6548 7.19928 40.0639 7.19928C40.9342 7.19928 41.3901 7.53032 41.3901 7.90273C41.3901 8.44066 40.4783 8.60618 38.9449 8.81308C36.2924 9.18549 34.5932 10.0131 34.5932 11.9165C34.5932 13.282 35.7122 14.6062 37.743 14.6062C39.4008 14.6062 40.2711 13.6131 40.354 13.5303C40.354 13.7786 40.3954 14.151 40.4369 14.4407C40.6027 14.4407 42.1776 14.4407 42.7164 14.4407C42.6335 14.0269 42.4677 13.282 42.7578 12.082C42.8821 11.4613 43.2966 9.59928 43.5038 8.5648C43.8768 6.66135 42.8407 5.29583 40.1468 5.29583C36.6654 5.29583 35.6707 7.77859 35.5049 8.19238H38.0331V8.15101Z" fill="#4B5563"/>
<path d="M79.3122 11.7096C79.2293 11.8751 78.6905 12.6613 77.4886 12.6613C75.7479 12.6613 75.3335 11.1717 75.3749 10.7993C76.2867 10.7993 81.6745 10.7993 82.1304 10.7993C82.1719 10.6338 82.3376 10.0131 82.3376 9.43375C82.3376 7.28203 80.8871 5.3372 77.9445 5.3372C75.2506 5.3372 73.0954 7.57168 73.0954 10.2613C73.0954 12.8269 74.6703 14.6889 77.4057 14.6889C80.8042 14.6889 81.716 12.0406 81.7989 11.7924C81.2186 11.7096 79.3122 11.7096 79.3122 11.7096ZM77.9859 7.32341C79.4779 7.32341 80.0582 8.23375 79.9753 8.97858C79.1049 8.97858 76.5768 8.97858 75.7065 8.97858C75.8308 8.48203 76.5354 7.32341 77.9859 7.32341Z" fill="#4B5563"/>
<path d="M6.20342 1.36479C6.20342 0.78548 5.87186 0.0820312 4.42129 0.0820312C3.84106 0.0820312 2.18327 0.0820312 2.18327 0.0820312L1.56159 3.01996C1.56159 3.01996 2.7635 3.01996 3.88251 3.01996C5.66464 3.01996 6.20342 2.151 6.20342 1.36479Z" fill="#4B5563"/>
<path d="M12.2129 1.36479C12.2129 0.78548 11.8814 0.0820312 10.4308 0.0820312C9.85057 0.0820312 8.19277 0.0820312 8.19277 0.0820312L7.5711 3.01996C7.5711 3.01996 8.773 3.01996 9.89201 3.01996C11.7156 3.01996 12.2129 2.151 12.2129 1.36479Z" fill="#4B5563"/>
<path d="M5.37452 5.79239C5.37452 5.21308 5.04296 4.50963 3.59239 4.50963C3.01216 4.50963 1.35437 4.50963 1.35437 4.50963L0.732697 7.44757C0.732697 7.44757 1.9346 7.44757 3.05361 7.44757C4.87718 7.44757 5.37452 6.5786 5.37452 5.79239Z" fill="#4B5563"/>
<path d="M11.4255 5.79239C11.4255 5.21308 11.0939 4.50963 9.64334 4.50963C9.06312 4.50963 7.40532 4.50963 7.40532 4.50963L6.7422 7.44757C6.7422 7.44757 7.9441 7.44757 9.06312 7.44757C10.8867 7.44757 11.4255 6.5786 11.4255 5.79239Z" fill="#4B5563"/>
<path d="M17.7251 3.97169C17.7251 3.39238 17.3935 2.68893 15.943 2.68893C15.3627 2.68893 13.7049 2.68893 13.7049 2.68893L13.0418 5.62686C13.0418 5.62686 14.2437 5.62686 15.3627 5.62686C17.1863 5.62686 17.7251 4.79928 17.7251 3.97169Z" fill="#4B5563"/>
<path d="M16.8548 8.56486C16.8548 7.98555 16.5232 7.2821 15.0726 7.2821C14.4924 7.2821 12.8346 7.2821 12.8346 7.2821L12.2129 10.22C12.2129 10.22 13.4148 10.22 14.5338 10.22C16.316 10.22 16.8548 9.39245 16.8548 8.56486Z" fill="#4B5563"/>
<path d="M10.5551 10.3855C10.5551 9.80616 10.2236 9.10272 8.773 9.10272C8.19277 9.10272 6.53498 9.10272 6.53498 9.10272L5.91331 12.0406C5.91331 12.0406 7.11521 12.0406 8.23422 12.0406C10.0163 12.0406 10.5551 11.1717 10.5551 10.3855Z" fill="#4B5563"/>
<path d="M101.941 11.8338C102.646 11.8338 103.267 12.4131 103.267 13.158C103.267 13.9442 102.646 14.4821 101.941 14.4821C101.195 14.4821 100.615 13.9028 100.615 13.158C100.615 12.3717 101.237 11.8338 101.941 11.8338ZM101.941 12.0407C101.319 12.0407 100.864 12.4959 100.864 13.158C100.864 13.82 101.319 14.2752 101.941 14.2752C102.563 14.2752 103.019 13.82 103.019 13.158C103.019 12.4959 102.563 12.0407 101.941 12.0407ZM101.651 13.9028H101.402V12.3717H101.983C102.356 12.3717 102.521 12.4959 102.521 12.8269C102.521 13.1166 102.356 13.1993 102.107 13.2407L102.563 13.9028H102.314L101.9 13.2407H101.651V13.9028ZM101.651 13.0338H101.941C102.231 13.0338 102.314 12.9511 102.314 12.7855C102.314 12.62 102.231 12.5373 101.983 12.5373H101.651V13.0338Z" fill="#4B5563"/>
</svg>
