<svg width="94" height="24" viewBox="0 0 94 24" fill="none" xmlns="http://www.w3.org/2000/svg">
<path d="M0.64563 3.62189H4.2692V16.9948H10.9775V20.3829H0.64563V3.62189Z" fill="#4B5563"/>
<path d="M12.5796 9.01846H16.0607V20.3766H12.5796V9.01846ZM14.3202 3.3717C14.7195 3.37178 15.1099 3.49183 15.442 3.71669C15.774 3.94155 16.0328 4.26112 16.1856 4.63498C16.3383 5.00884 16.3783 5.42021 16.3003 5.81707C16.2224 6.21393 16.03 6.57845 15.7476 6.86455C15.4652 7.15065 15.1053 7.34547 14.7136 7.42439C14.3219 7.5033 13.9159 7.46276 13.5469 7.3079C13.178 7.15303 12.8626 6.89079 12.6407 6.55434C12.4188 6.21789 12.3004 5.82233 12.3004 5.41769C12.3004 5.14898 12.3527 4.88289 12.4542 4.63464C12.5557 4.38639 12.7044 4.16082 12.892 3.97083C13.0796 3.78084 13.3022 3.63014 13.5473 3.52734C13.7923 3.42454 14.0549 3.37166 14.3202 3.3717Z" fill="#4B5563"/>
<path d="M30.6222 3.61938H34.1033V13.6362L38.0485 9.01338H42.3164L37.7475 14.2718L42.2203 20.3815H37.8451L34.1497 14.767H34.104V20.3807H30.6229L30.6222 3.61938Z" fill="#4B5563"/>
<path d="M17.9908 9.0196H21.3338V10.5718H21.3813C21.7152 9.99221 22.1982 9.51539 22.7787 9.19225C23.3592 8.8691 24.0155 8.71177 24.6774 8.73707C28.2074 8.73707 28.8572 11.0902 28.8572 14.1472V20.3759H25.3761V14.8537C25.3761 13.5355 25.3522 11.8411 23.5631 11.8411C21.7537 11.8411 21.4745 13.2765 21.4745 14.7578V20.3745H17.9934L17.9908 9.0196Z" fill="#4B5563"/>
<path d="M49.6477 13.3765C49.6544 13.0904 49.6036 12.8059 49.4986 12.5402C49.3935 12.2745 49.2363 12.0332 49.0365 11.8309C48.8366 11.6285 48.5983 11.4694 48.336 11.3632C48.0737 11.2569 47.7929 11.2057 47.5105 11.2126C46.9022 11.1743 46.3035 11.3796 45.8433 11.7844C45.3832 12.1892 45.0984 12.761 45.0505 13.3765H49.6477ZM52.5965 18.4097C52.018 19.1205 51.2908 19.6919 50.4674 20.0828C49.6441 20.4736 48.7453 20.674 47.8361 20.6696C44.355 20.6696 41.568 18.3153 41.568 14.6697C41.568 11.0241 44.3547 8.67102 47.8361 8.67102C51.0898 8.67102 53.1302 11.0223 53.1302 14.6697V15.7756H45.0505C45.1511 16.4027 45.472 16.9719 45.9541 17.3783C46.4362 17.7846 47.047 18.0008 47.674 17.9869C48.1695 17.9838 48.6563 17.8552 49.0902 17.6127C49.5241 17.3703 49.8913 17.0218 50.1583 16.5989L52.5965 18.4097Z" fill="#4B5563"/>
<path d="M60.3856 11.764C58.6451 11.764 57.6008 12.9415 57.6008 14.6572C57.6008 16.3729 58.6447 17.5515 60.3856 17.5515C62.1265 17.5515 63.173 16.3758 63.173 14.6572C63.173 12.9386 62.1283 11.764 60.3856 11.764ZM66.3778 20.3745H63.173V18.8682H63.1255C62.7235 19.4161 62.202 19.8625 61.6017 20.1728C61.0014 20.483 60.3386 20.6486 59.6648 20.6567C56.32 20.6567 54.1168 18.2109 54.1168 14.7524C54.1168 11.5759 56.0666 8.65922 59.2717 8.65922C60.7123 8.65922 62.058 9.05857 62.8474 10.1655H62.8931V3.61829H66.3774L66.3778 20.3745Z" fill="#4B5563"/>
<path d="M89.8784 20.3811H86.3974V14.8577C86.3974 13.5407 86.3741 11.8452 84.5868 11.8452C82.7738 11.8452 82.4964 13.2802 82.4964 14.7619V20.3807H79.0153V9.02252H82.3571V10.5747H82.4039C82.7384 9.99538 83.2216 9.51877 83.8023 9.19568C84.3829 8.87258 85.0392 8.7151 85.7011 8.74C89.2293 8.74 89.8799 11.0913 89.8799 14.1502L89.8784 20.3811ZM75.0875 7.46994C74.688 7.47001 74.2974 7.35004 73.9651 7.12521C73.6329 6.90037 73.3739 6.58076 73.221 6.2068C73.068 5.83284 73.0279 5.42132 73.1058 5.02428C73.1837 4.62724 73.376 4.26252 73.6585 3.97623C73.9409 3.68994 74.3008 3.49494 74.6927 3.4159C75.0845 3.33685 75.4907 3.37731 75.8599 3.53215C76.229 3.687 76.5446 3.94927 76.7666 4.28581C76.9886 4.62235 77.1072 5.01805 77.1073 5.42285C77.1073 5.69163 77.0551 5.95778 76.9536 6.20612C76.8521 6.45446 76.7034 6.68012 76.5158 6.87021C76.3283 7.0603 76.1056 7.21109 75.8605 7.314C75.6155 7.4169 75.3528 7.46989 75.0875 7.46994ZM76.828 20.3811H73.3433V9.02252H76.828V20.3811ZM91.6139 0.101231H71.5941C71.1397 0.0960357 70.7019 0.273828 70.3768 0.59554C70.0517 0.917251 69.866 1.35656 69.8605 1.81693V22.1846C69.8658 22.6452 70.0514 23.0848 70.3765 23.4068C70.7015 23.7289 71.1395 23.907 71.5941 23.9021H91.6139C92.0694 23.9079 92.5086 23.7303 92.8349 23.4082C93.1613 23.0862 93.3481 22.6461 93.3544 22.1846V1.81546C93.3479 1.35418 93.1609 0.914369 92.8346 0.592665C92.5082 0.270962 92.0692 0.0936771 91.6139 0.0997609" fill="#4B5563"/>
</svg>
