<svg width="80" height="24" viewBox="0 0 80 24" fill="none" xmlns="http://www.w3.org/2000/svg">
<path fill-rule="evenodd" clip-rule="evenodd" d="M49.3751 18.6127C44.7262 22.0239 37.9878 23.844 32.1862 23.844C24.0515 23.844 16.7281 20.8487 11.1876 15.8671C10.7524 15.4753 11.1424 14.9415 11.6647 15.2465C17.6439 18.7098 25.037 20.7933 32.6738 20.7933C37.8241 20.7933 43.4899 19.7324 48.6995 17.5311C49.4865 17.1983 50.1447 18.0442 49.3751 18.6127Z" fill="#4B5563"/>
<path fill-rule="evenodd" clip-rule="evenodd" d="M51.5631 16.7236C50.9711 15.9679 47.635 16.3665 46.1376 16.5433C45.6814 16.5988 45.6118 16.2036 46.0227 15.9193C48.6797 14.0577 53.0396 14.5951 53.5481 15.2191C54.0565 15.8465 53.4157 20.1973 50.9189 22.2738C50.5358 22.5927 50.1702 22.4229 50.3408 21.9999C50.9015 20.6063 52.1586 17.4828 51.5631 16.7236Z" fill="#4B5563"/>
<path fill-rule="evenodd" clip-rule="evenodd" d="M46.2421 2.77707V0.967449C46.2421 0.693579 46.4511 0.509844 46.7018 0.509844H54.84C55.1012 0.509844 55.3102 0.697046 55.3102 0.967449V2.51707C55.3067 2.77707 55.0873 3.1168 54.6973 3.65414L50.4801 9.64807C52.0472 9.60994 53.7013 9.84221 55.1221 10.6396C55.4425 10.8198 55.5295 11.0833 55.5539 11.3433V13.2742C55.5539 13.5377 55.2614 13.8462 54.955 13.6868C52.4511 12.3798 49.1255 12.2377 46.357 13.7006C46.075 13.8532 45.779 13.5481 45.779 13.2846V11.4508C45.779 11.1561 45.7824 10.6534 46.0784 10.2062L50.9642 3.23121H46.7122C46.4511 3.23121 46.2421 3.04747 46.2421 2.77707Z" fill="#4B5563"/>
<path fill-rule="evenodd" clip-rule="evenodd" d="M16.5551 14.0681H14.0791C13.8423 14.0508 13.6543 13.874 13.6369 13.6487V0.998685C13.6369 0.745616 13.8493 0.544545 14.114 0.544545H16.4228C16.663 0.554938 16.8546 0.73868 16.872 0.967482V2.6211H16.9172C17.5197 1.02295 18.6515 0.277609 20.1767 0.277609C21.7264 0.277609 22.6945 1.02295 23.3909 2.6211C23.9899 1.02295 25.3515 0.277609 26.8106 0.277609C27.8483 0.277609 28.9836 0.704013 29.6766 1.66082C30.4601 2.7251 30.2999 4.27125 30.2999 5.62673L30.2964 13.6105C30.2964 13.8636 30.084 14.0681 29.8194 14.0681H27.3469C27.0996 14.0508 26.9011 13.8532 26.9011 13.6105V6.90594C26.9011 6.37207 26.9499 5.04086 26.8315 4.53472C26.6469 3.68538 26.0932 3.44617 25.3759 3.44617C24.7769 3.44617 24.1501 3.84484 23.8959 4.48272C23.6417 5.12059 23.666 6.18833 23.666 6.90594V13.6105C23.666 13.8636 23.4536 14.0681 23.189 14.0681H20.7165C20.4658 14.0508 20.2708 13.8532 20.2708 13.6105L20.2673 6.90594C20.2673 5.495 20.5006 3.41844 18.742 3.41844C16.9625 3.41844 17.0322 5.44299 17.0322 6.90594V13.6105C17.0322 13.8636 16.8197 14.0681 16.5551 14.0681Z" fill="#4B5563"/>
<path fill-rule="evenodd" clip-rule="evenodd" d="M62.3166 0.277609C65.9905 0.277609 67.9789 3.41844 67.9789 7.41208C67.9789 11.2705 65.7816 14.3316 62.3166 14.3316C58.7089 14.3316 56.7449 11.1908 56.7449 7.27688C56.7449 3.33871 58.7333 0.277609 62.3166 0.277609ZM62.3375 2.8603C60.5128 2.8603 60.3979 5.33553 60.3979 6.87821C60.3979 8.42436 60.3735 11.7247 62.3166 11.7247C64.2354 11.7247 64.3259 9.06223 64.3259 7.43981C64.3259 6.37207 64.2807 5.09632 63.9568 4.08405C63.6782 3.20351 63.1245 2.8603 62.3375 2.8603Z" fill="#4B5563"/>
<path fill-rule="evenodd" clip-rule="evenodd" d="M72.7428 14.0681H70.2773C70.03 14.0508 69.8315 13.8532 69.8315 13.6105L69.828 0.957082C69.8489 0.724813 70.0544 0.544545 70.3051 0.544545H72.6C72.8159 0.554938 72.9935 0.700547 73.0423 0.898149V2.83257H73.0875C73.7805 1.10268 74.7521 0.277609 76.4619 0.277609C77.5728 0.277609 78.6558 0.67628 79.3523 1.76829C80 2.78057 80 4.48272 80 5.70646V13.6695C79.9721 13.8913 79.7667 14.0681 79.5229 14.0681H77.04C76.8136 14.0508 76.6256 13.8844 76.6012 13.6695V6.79847C76.6012 5.41526 76.7614 3.39071 75.0516 3.39071C74.4491 3.39071 73.8954 3.79285 73.6203 4.40298C73.2721 5.17606 73.2268 5.94567 73.2268 6.79847V13.6105C73.2233 13.8636 73.0074 14.0681 72.7428 14.0681Z" fill="#4B5563"/>
<path fill-rule="evenodd" clip-rule="evenodd" d="M39.7545 8.02567C39.7545 8.98594 39.7789 9.78675 39.2913 10.6396C38.8978 11.3329 38.271 11.7593 37.578 11.7593C36.6273 11.7593 36.0702 11.0382 36.0702 9.97395C36.0702 7.87313 37.9611 7.49179 39.7545 7.49179V8.02567ZM42.2513 14.0335C42.0877 14.1791 41.8509 14.1895 41.6663 14.0924C40.8445 13.4129 40.6947 13.0975 40.2455 12.4492C38.8874 13.8289 37.9228 14.2415 36.1642 14.2415C34.0783 14.2415 32.459 12.9622 32.459 10.4004C32.459 8.40007 33.5455 7.03766 35.0986 6.37205C36.4428 5.78271 38.3198 5.67871 39.7545 5.51577V5.19684C39.7545 4.61096 39.7998 3.91762 39.4515 3.41149C39.152 2.95735 38.574 2.77014 38.0621 2.77014C37.1183 2.77014 36.2791 3.25202 36.0736 4.25043C36.0319 4.4723 35.8682 4.6907 35.6418 4.7011L33.2425 4.44456C33.0405 4.3995 32.8142 4.23656 32.8734 3.92802C33.4236 1.02986 36.0562 0.15625 38.4103 0.15625C39.6152 0.15625 41.1892 0.475187 42.1399 1.38346C43.3448 2.50321 43.2299 3.99736 43.2299 5.62324V9.46435C43.2299 10.6188 43.7104 11.1249 44.1631 11.7489C44.3198 11.9708 44.3547 12.2377 44.1527 12.4041C43.6477 12.8236 42.7493 13.6036 42.2548 14.0404L42.2513 14.0335Z" fill="#4B5563"/>
<path fill-rule="evenodd" clip-rule="evenodd" d="M7.29552 8.02585C7.29552 8.98613 7.3199 9.78694 6.83237 10.6397C6.43886 11.3331 5.81552 11.7595 5.11905 11.7595C4.16837 11.7595 3.61468 11.0384 3.61468 9.97414C3.61468 7.87332 5.50559 7.49198 7.29552 7.49198V8.02585ZM9.79236 14.0336C9.62869 14.1793 9.39189 14.1897 9.20733 14.0926C8.3855 13.4131 8.23923 13.0976 7.78653 12.4494C6.42841 13.8291 5.46729 14.2417 3.70522 14.2417C1.62277 14.2417 0 12.9624 0 10.4005C0 8.40026 1.08997 7.03784 2.63962 6.37224C3.98381 5.7829 5.86079 5.6789 7.29552 5.51596V5.19702C7.29552 4.61115 7.34079 3.91781 6.99604 3.41167C6.69307 2.95753 6.115 2.77033 5.60658 2.77033C4.66287 2.77033 3.82014 3.2522 3.61468 4.25061C3.57289 4.47248 3.40922 4.69089 3.18635 4.70129L0.783529 4.44475C0.581552 4.39968 0.358681 4.23675 0.414399 3.92821C0.968093 1.03005 3.59726 0.156436 5.95133 0.156436C7.15622 0.156436 8.73025 0.475374 9.68093 1.38365C10.8858 2.50339 10.7709 3.99754 10.7709 5.62343V9.46453C10.7709 10.6189 11.2515 11.1251 11.7042 11.7491C11.8644 11.971 11.8992 12.2379 11.6972 12.4043C11.1923 12.8238 10.2938 13.6038 9.79932 14.0406L9.79236 14.0336Z" fill="#4B5563"/>
</svg>
