<svg width="98" height="24" viewBox="0 0 98 24" fill="none" xmlns="http://www.w3.org/2000/svg">
<path fill-rule="evenodd" clip-rule="evenodd" d="M96.9649 16.6199C96.6611 16.3994 96.4202 16.3679 96.2213 16.7878C92.8072 24.1884 87.0577 20.4934 87.6338 20.8188C88.9114 20.231 92.2627 17.5436 91.7599 13.8171C91.4563 11.5391 89.5083 10.5314 87.4348 10.8988C83.8218 11.5286 82.5023 15.4337 83.1725 18.8873C83.2877 19.4857 83.4972 19.9685 83.7172 20.4514C79.6433 23.7791 78.0202 17.4806 77.8315 16.7248C77.8212 16.6828 80.9838 14.048 81.8635 7.76009C82.7851 1.17823 80.6905 -0.0289627 78.5438 0.0130267C74.5747 0.0865083 73.5064 8.38992 74.9411 15.3077C74.8259 15.3392 74.2604 15.6541 73.3599 15.6856C72.7105 13.6386 69.9353 11.8436 69.2127 12.5364C67.4009 14.2685 69.6525 17.6486 71.2445 17.911C70.2913 23.8001 64.3221 22.3409 65.4321 14.9613C67.3695 11.3502 68.8566 5.96503 68.5844 2.72134C68.4901 1.57713 67.6418 0.0340214 65.7254 0.107503C62.0391 0.254467 61.6411 8.55787 62.0704 14.4574C62.0496 14.3104 61.8401 15.1712 60.3319 15.6016C59.9759 13.6176 56.7819 11.6126 56.0279 12.5784C54.6246 14.3734 57.0646 17.5751 58.2166 17.7956C57.2636 23.6846 51.2943 22.2254 52.4044 14.8458C54.3524 11.2347 55.8289 5.86006 55.567 2.61638C55.4729 1.47216 54.6246 -0.0709522 52.708 0.00252936C49.0217 0.149492 48.6237 8.4529 49.0533 14.3524C49.0322 14.2055 48.8227 15.0978 47.2518 15.5176C47.1996 12.9353 43.995 11.7596 43.22 12.5784C41.8481 14.048 43.5341 17.0607 45.0945 17.7956C44.1416 23.6846 38.1723 22.2254 39.2823 14.8458C41.2198 11.2347 42.7069 5.84957 42.4347 2.60587C42.3509 1.47216 41.5026 -0.0709522 39.5859 0.00252936C35.8996 0.149492 35.6066 8.8728 36.0359 14.7723C34.821 19.9895 30.7473 26.4979 31.2812 13.4497C31.3337 12.5364 31.3861 12.19 30.9357 11.8436C30.5902 11.5811 29.8152 11.7071 29.3962 11.7176C28.8831 11.7386 28.7471 12.043 28.6422 12.4944C28.3805 13.6701 28.3281 14.8143 28.2862 16.3784C28.2654 17.1132 28.2024 17.4492 27.9196 18.4464C27.6369 19.4437 26.0451 21.2597 25.1654 20.9553C23.9506 20.5354 24.3485 17.1027 24.5788 14.7408C24.7675 12.8723 24.1601 12.043 22.6101 11.7386C21.699 11.5496 21.144 11.5811 20.2015 11.2767C19.3008 10.9933 19.1018 9.29271 17.1958 9.85956C16.1486 10.1745 16.8188 12.3894 16.5675 14.0375C15.3317 22.131 12.766 22.3514 11.5721 18.4254C16.934 5.24071 13.1116 0.0445188 10.8809 0.0445188C8.55603 0.0445188 5.89602 1.65061 7.01656 11.938C6.472 11.7806 6.30444 11.6966 5.69703 11.6966C2.31442 11.6861 0 14.4364 0 17.8271C0 21.2177 2.31442 23.968 5.70752 23.968C7.70775 23.968 9.11106 23.0547 10.1793 21.6481C10.8705 22.6454 11.7187 23.989 13.2686 23.926C17.8765 23.7476 19.217 14.2685 19.3741 13.7331C19.8663 13.8066 20.3376 13.9535 20.7879 14.027C21.5419 14.1425 21.6048 14.4469 21.5838 15.2027C21.3848 21.6481 22.5682 23.905 25.2598 23.905C26.7572 23.905 28.0978 22.4249 29.0193 21.3752C29.7106 22.8028 30.7995 23.863 32.2763 23.905C35.8369 23.989 37.2088 18.2994 37.0831 19.0448C36.9888 19.6326 38.235 23.863 41.911 23.884C46.4559 23.905 47.3042 18.8978 47.3986 18.058C47.4091 17.89 47.4194 17.911 47.3986 18.058C47.3986 18.0685 47.3986 18.0895 47.3986 18.1105C48.8438 17.8375 49.5872 17.0713 49.5872 17.0713C49.5872 17.0713 50.7496 23.968 55.0331 23.8946C59.4839 23.8106 60.3319 19.2862 60.4368 18.4044C60.4473 18.1945 60.4576 18.2155 60.4368 18.4044C60.4368 18.4149 60.4368 18.4254 60.4368 18.4254C62.1542 17.7956 62.6046 17.1762 62.6046 17.1762C62.6046 17.1762 63.5262 23.9365 68.0502 23.9995C72.0823 24.0521 73.5797 19.9055 73.5902 18.1735C74.2709 18.184 75.5277 17.7641 75.4963 17.7431C75.4963 17.7431 76.9729 23.6531 81.099 23.9575C83.0365 24.1044 84.492 22.8658 85.3195 22.2989C87.2672 23.884 93.7498 25.8996 97.8446 18.9398C98.431 17.953 97.1847 16.7668 96.9649 16.6199ZM5.53994 21.6691C3.56066 21.6691 2.29348 19.8321 2.29348 17.8585C2.29348 15.8851 3.45593 14.048 5.43524 14.048C6.32539 14.048 6.81759 14.1425 7.51925 14.7513C7.64493 15.2447 8.00098 16.3889 8.17902 16.9138C8.40941 17.6066 8.69217 18.205 8.96446 18.8453C8.55603 20.5039 7.25743 21.6691 5.53994 21.6691ZM10.3573 14.8038C10.2735 14.6674 10.2945 14.7513 10.2002 14.6254C9.84415 13.6386 9.1425 11.4342 9.05872 8.92529C8.96446 6.09101 9.43573 2.76334 10.8285 2.76334C11.7711 2.76334 12.7764 9.50266 10.3573 14.8038ZM38.2245 11.8541C38.0047 10.1745 37.9942 2.66887 39.7851 2.8788C40.78 3.2777 39.1566 10.3529 38.2245 11.8541ZM51.3465 11.8541C51.1267 10.1745 51.1162 2.66887 52.9072 2.8788C53.902 3.2777 52.2787 10.3529 51.3465 11.8541ZM64.364 11.959C64.1439 10.2794 64.1336 2.77382 65.9243 2.98378C66.9192 3.37219 65.2961 10.4579 64.364 11.959ZM78.7322 2.42743C80.3764 2.25946 80.3031 9.45017 77.0148 13.985C76.5853 12.3474 75.9361 2.99429 78.7322 2.42743ZM85.6441 17.911C85.1205 15.2342 86.4819 13.4811 87.8852 13.2922C88.3775 13.2187 89.0896 13.5336 89.2256 14.132C89.4561 15.2552 89.1942 16.9243 86.0421 19.0343C86.0526 19.0448 85.7593 18.4989 85.6441 17.911ZM29.9409 9.6601C31.0614 9.6601 31.9725 8.74683 31.9725 7.62363C31.9725 6.5004 31.0614 5.58713 29.9409 5.58713C28.8204 5.58713 27.9091 6.5004 27.9091 7.62363C27.9091 8.74683 28.8204 9.6601 29.9409 9.6601Z" fill="#4B5563"/>
</svg>
