<svg width="74" height="24" viewBox="0 0 74 24" fill="none" xmlns="http://www.w3.org/2000/svg">
<path d="M71.2398 14.6519L73.2649 16.0046C72.6076 16.9746 71.0355 18.6388 68.3177 18.6388C64.9425 18.6388 62.4289 16.0224 62.4289 12.6941C62.4289 9.15216 64.9692 6.74935 68.0334 6.74935C71.1155 6.74935 72.6254 9.20555 73.1139 10.5316L73.3803 11.2079L65.4399 14.5006C66.0439 15.6931 66.9854 16.2983 68.3177 16.2983C69.6499 16.2983 70.5737 15.6398 71.2398 14.6519ZM65.0136 12.5072L70.3161 10.3002C70.023 9.56153 69.1526 9.03647 68.1134 9.03647C66.79 9.03647 64.9514 10.2112 65.0136 12.5072Z" fill="#4B5563"/>
<path d="M58.6009 0.688974H61.1589V18.096H58.6009V0.688974Z" fill="#4B5563"/>
<path d="M54.5685 7.21214H57.0376V17.7845C57.0376 22.1719 54.453 23.9784 51.3976 23.9784C48.5199 23.9784 46.7879 22.0384 46.1395 20.4632L48.4044 19.5199C48.813 20.4899 49.7989 21.6379 51.3976 21.6379C53.3605 21.6379 54.5685 20.4187 54.5685 18.1405V17.2861H54.4796C53.8934 17.9981 52.7743 18.6388 51.3532 18.6388C48.3866 18.6388 45.6688 16.0491 45.6688 12.7119C45.6688 9.35687 48.3866 6.74047 51.3532 6.74047C52.7654 6.74047 53.8934 7.37232 54.4796 8.06647H54.5685V7.21214ZM54.7461 12.7119C54.7461 10.6117 53.3516 9.08099 51.5753 9.08099C49.7811 9.08099 48.2712 10.6117 48.2712 12.7119C48.2712 14.7854 49.7811 16.2894 51.5753 16.2894C53.3516 16.2983 54.7461 14.7854 54.7461 12.7119Z" fill="#4B5563"/>
<path d="M31.6265 12.6674C31.6265 16.0936 28.9619 18.6121 25.6933 18.6121C22.4248 18.6121 19.7602 16.0847 19.7602 12.6674C19.7602 9.22335 22.4248 6.71375 25.6933 6.71375C28.9619 6.71375 31.6265 9.22335 31.6265 12.6674ZM29.0329 12.6674C29.0329 10.5316 27.4875 9.06317 25.6933 9.06317C23.8992 9.06317 22.3537 10.5316 22.3537 12.6674C22.3537 14.7854 23.8992 16.2716 25.6933 16.2716C27.4875 16.2716 29.0329 14.7854 29.0329 12.6674Z" fill="#4B5563"/>
<path d="M44.5852 12.6941C44.5852 16.1203 41.9206 18.6388 38.6521 18.6388C35.3835 18.6388 32.719 16.1203 32.719 12.6941C32.719 9.25005 35.3835 6.74935 38.6521 6.74935C41.9206 6.74935 44.5852 9.24115 44.5852 12.6941ZM41.9828 12.6941C41.9828 10.5583 40.4374 9.08986 38.6432 9.08986C36.8491 9.08986 35.3036 10.5583 35.3036 12.6941C35.3036 14.8121 36.8491 16.2983 38.6432 16.2983C40.4462 16.2983 41.9828 14.8032 41.9828 12.6941Z" fill="#4B5563"/>
<path d="M10.0079 16.0313C6.28635 16.0313 3.37308 13.0234 3.37308 9.29456C3.37308 5.56575 6.28635 2.55779 10.0079 2.55779C12.0152 2.55779 13.4807 3.34982 14.5643 4.36434L16.3496 2.57558C14.8396 1.125 12.8234 0.0214844 10.0079 0.0214844C4.90966 0.0214844 0.61969 4.18636 0.61969 9.29456C0.61969 14.4028 4.90966 18.5676 10.0079 18.5676C12.7613 18.5676 14.8396 17.6599 16.465 15.969C18.1348 14.296 18.65 11.9465 18.65 10.0421C18.65 9.44584 18.5789 8.83179 18.499 8.37793H10.0079V10.8519H16.0565C15.8788 12.4004 15.3903 13.4594 14.6709 14.1803C13.8005 15.0613 12.4238 16.0313 10.0079 16.0313Z" fill="#4B5563"/>
</svg>
